<svg version="1.1" xmlns="http://www.w3.org/2000/svg" xmlns:xlink="http://www.w3.org/1999/xlink" x="0px" y="0px" viewBox="0 0 3000 3000"><ellipse opacity="0.3" cx="1400.4" cy="2615.2" rx="472.8" ry="130.6"></ellipse><g transform="matrix(-2.9166107177734375, 0, 0, 2.9166107177734375, 1880.95,1719.3)"><g transform="matrix(1, 0, 0, 1, 0, 0)"><path fill="#A17E52" d="M15.6,43.5c-6,16-10,32.3-12.1,49.1c-0.7,5.4-1.3,10.8-1.9,16.1c-0.9,6.2,0.5,13.1,4.2,20.7 c3.4,6,8,12,13.5,17.8c5.6,5.9,10.8,8.9,15.5,8.9c4.8,0,10-2.7,15.8-8.1c5.4-5,9.3-9.5,11.9-13.5c4-6.2,6.3-12.2,7-18.1 c1.2-14,3.8-28.1,7.7-42.3c3.9-14.2,12.5-29.8,25.9-46.8L49.7,0C33.7,10.8,22.4,25.3,15.6,43.5z"></path><path d="M34.8,161.1C34.8,161.1,34.8,161,34.8,161.1c6.2,0,12.5-3.1,19.2-9.4c5.7-5.3,9.9-10,12.7-14.4c4.4-6.8,7-13.6,7.8-20.2c0-0.1,0-0.1,0-0.2c1.2-13.6,3.7-27.6,7.5-41.5c3.7-13.5,12.1-28.7,25-45.1c1.7-2.2,1.3-5.3-0.8-7c-2.2-1.7-5.3-1.3-7,0.8C85.5,41.6,76.5,57.9,72.4,72.7c-3.9,14.5-6.5,29-7.8,43.1c-0.6,5-2.7,10.4-6.3,15.9c-2.4,3.7-6.1,7.9-11.1,12.5c-4.7,4.4-9,6.7-12.4,6.7c0,0,0,0,0,0c-3.3,0-7.4-2.5-11.9-7.3c-5.3-5.5-9.5-11.2-12.8-16.8c-3.2-6.6-4.4-12.5-3.7-17.6c0-0.1,0-0.1,0-0.2c0.6-5.3,1.2-10.7,1.9-16.1c2.1-16.3,6.1-32.4,11.9-48c6.4-17.1,17.2-30.9,32.3-41.1c2.3-1.5,2.9-4.7,1.3-6.9c-1.5-2.3-4.7-2.9-6.9-1.3C30.1,7.2,18,22.7,10.9,41.7C4.8,58,0.7,74.8-1.5,91.9c-0.7,5.4-1.3,10.8-1.9,16.1c-1.1,7.1,0.5,15,4.7,23.5c0,0.1,0.1,0.2,0.1,0.3c3.6,6.3,8.4,12.7,14.3,18.8C22.3,157.7,28.5,161,34.8,161.1z M5.7,129.4L5.7,129.4L5.7,129.4z"></path></g></g><g transform="matrix(-2.9166107177734375, 0, 0, 2.9166107177734375, 1880.95,1719.3)"><g transform="matrix( 1, 0, 0, 1, 0,0) "><path d="M34.8,161.1C34.8,161.1,34.8,161,34.8,161.1c6.2,0,12.5-3.1,19.2-9.4c5.7-5.3,9.9-10,12.7-14.4c4.4-6.8,7-13.6,7.8-20.2c0-0.1,0-0.1,0-0.2c1.2-13.6,3.7-27.6,7.5-41.5c3.7-13.5,12.1-28.7,25-45.1c1.7-2.2,1.3-5.3-0.8-7c-2.2-1.7-5.3-1.3-7,0.8C85.5,41.6,76.5,57.9,72.4,72.7c-3.9,14.5-6.5,29-7.8,43.1c-0.6,5-2.7,10.4-6.3,15.9c-2.4,3.7-6.1,7.9-11.1,12.5c-4.7,4.4-9,6.7-12.4,6.7c0,0,0,0,0,0c-3.3,0-7.4-2.5-11.9-7.3c-5.3-5.5-9.5-11.2-12.8-16.8c-3.2-6.6-4.4-12.5-3.7-17.6c0-0.1,0-0.1,0-0.2c0.6-5.3,1.2-10.7,1.9-16.1c2.1-16.3,6.1-32.4,11.9-48c6.4-17.1,17.2-30.9,32.3-41.1c2.3-1.5,2.9-4.7,1.3-6.9c-1.5-2.3-4.7-2.9-6.9-1.3C30.1,7.2,18,22.7,10.9,41.7C4.8,58,0.7,74.8-1.5,91.9c-0.7,5.4-1.3,10.8-1.9,16.1c-1.1,7.1,0.5,15,4.7,23.5c0,0.1,0.1,0.2,0.1,0.3c3.6,6.3,8.4,12.7,14.3,18.8C22.3,157.7,28.5,161,34.8,161.1z M5.7,129.4L5.7,129.4L5.7,129.4z"></path></g></g><g transform="matrix(2.9166107177734375, 0, 0, 2.9166107177734375, 468.15,1761.65)"><g transform="matrix(1, 0, 0, 1, 0, 0)"><path fill="#A17E52" d="M240.4,104.4c-0.7-0.2-2.8-0.2-6.2-0.1c-4.9,0-9-0.1-12.2-0.2c-13.4-0.5-26.4-2.4-39-5.8 c-17.4-4.7-34.2-12.3-50.5-23c-5.3-3.5-10.3-7.1-14.8-10.7c-0.1-0.1-0.2-0.2-0.3-0.3c-3.4-2.8-5.6-4.8-6.6-6.1 c1,1.2,3.2,3.2,6.6,6.1c0.1,0.1,0.2,0.2,0.3,0.3c0.3-1.4,0.9-3.7,1.7-6.8c1.5-5.8,4.5-10.9,9-15.3c3.3-3.3,7.7-6.4,13.2-9.5 c3-1.7,7.2-3.9,12.6-6.6c3.8-2.3,6-4.6,6.6-6.8c1.1-4-0.7-7.7-5.3-11.3c-3.8-3-8.7-5.2-14.5-6.7c-6.6-1.8-13.5-2-20.8-0.7 c-7,1.2-13.6,3.7-19.9,7.4c-6.2,3.7-11.4,8.1-15.7,13.4c-4.4,5.6-7.3,11.5-8.5,17.6l-0.3,1c3.3,1.2,6.8,2.6,10.3,4.2 c-3.6-1.6-7-3-10.3-4.2C42.2,28.5,18.4,38.4,3.9,70.2C0.7,79-0.6,85.4,0.2,89.2c0.9,4.3,2.6,6.8,5.2,7.5 c1.6,0.4,4.5-0.1,8.6-1.4c2.6-0.8,7.1-2.4,13.6-4.7c13.8-4.3,26.1-5,36.8-2.2c4.4,1.2,8.3,3.3,11.8,6.4 c2.7,2.4,5.9,6.2,9.5,11.3c2.1,3,5.7,8.2,10.8,15.7c5.1,6.8,10.4,13.2,16.1,19c8.8,9.1,16.8,16.5,23.9,22.2 c10.4,8.2,21.2,14.9,32.5,19.9c9.5,4.2,21.7,9.5,36.7,15.8c2.6,1,4.8,2,6.6,2.9c1.5-1.1,2.9-2.1,4.3-3.2 c7.2-5.6,13.2-11.4,17.9-17.7c6.5-8.5,11.3-18.5,14.4-30.1c2.8-10.6,2.9-21.1,0.3-31.3c-1-4.1-2.4-7.6-4.2-10.4 C243.6,106.4,242,104.8,240.4,104.4z"></path><path d="M212.3,206.8c-0.8,0-1.5-0.2-2.2-0.5c-1.7-0.8-3.8-1.8-6.2-2.7c0,0-0.1,0-0.1,0c-14.9-6.3-27.2-11.7-36.7-15.9 c-11.6-5.2-22.9-12.1-33.6-20.5c-7.3-5.8-15.5-13.4-24.4-22.6c-5.8-6-11.4-12.6-16.5-19.5c0,0-0.1-0.1-0.1-0.1 c-5.1-7.3-8.7-12.6-10.7-15.6c-3.4-4.8-6.3-8.3-8.7-10.4c-2.9-2.6-6.1-4.3-9.7-5.3c-9.7-2.6-21.1-1.9-34,2.1 c-6.4,2.3-11,3.8-13.6,4.7c-5.2,1.7-8.7,2.2-11.4,1.6c-0.1,0-0.1,0-0.2,0C1,100.7-3.1,98-4.6,90.2c-1-4.9,0.2-11.8,3.9-21.8 c0-0.1,0.1-0.2,0.1-0.3c7.7-17,18.3-28.4,31.4-33.8c11.8-4.9,25.7-5,41.4-0.4c1.7-5.3,4.5-10.5,8.4-15.3c0,0,0,0,0,0 c4.6-5.7,10.4-10.7,17-14.6c6.8-4,14-6.7,21.6-8.1c8-1.4,15.7-1.1,23,0.8c6.4,1.7,11.9,4.3,16.3,7.6c7.9,6.2,8.2,12.4,7.1,16.6 c-1,3.5-3.8,6.7-8.8,9.8c-0.1,0.1-0.2,0.1-0.4,0.2c-5.2,2.7-9.4,4.8-12.4,6.5c0,0,0,0,0,0c-5.1,2.8-9.2,5.7-12.1,8.7 c-3.8,3.8-6.3,8.1-7.7,13c-0.4,1.4-0.7,2.5-0.9,3.6c3.7,2.9,7.7,5.7,11.9,8.5c15.7,10.3,32.2,17.8,49,22.3 c12.2,3.3,25,5.1,37.9,5.6c3.2,0.1,7.2,0.2,12,0.2c5.4-0.2,6.7,0,7.5,0.2c0,0,0.1,0,0.1,0c2.9,0.8,5.5,3.1,7.8,6.9 c2,3.2,3.6,7.2,4.7,11.8c2.8,11,2.7,22.4-0.3,33.8c-3.3,12.2-8.4,23-15.3,31.9c-5,6.5-11.3,12.8-18.9,18.6 c-1.5,1.1-3,2.2-4.5,3.3C214.4,206.5,213.4,206.8,212.3,206.8z M207.7,194.3c1.5,0.6,2.8,1.2,4.1,1.7c0.6-0.5,1.3-0.9,1.9-1.4 c6.8-5.3,12.6-10.9,17-16.7c6-7.9,10.6-17.5,13.5-28.4c2.6-9.7,2.7-19.4,0.3-28.8c0,0,0,0,0,0c-0.9-3.6-2.1-6.6-3.6-9 c0,0,0-0.1-0.1-0.1c-0.9-1.5-1.5-2.2-1.8-2.4c-0.6,0-1.9-0.1-4.8,0c0,0-0.1,0-0.1,0c-4.9,0-9.1-0.1-12.5-0.2 c-13.7-0.5-27.2-2.5-40.1-6c-17.8-4.8-35.3-12.7-51.9-23.6c-5.4-3.6-10.5-7.3-15.2-11c-0.1-0.1-0.2-0.2-0.3-0.3 c-0.1-0.1-0.2-0.1-0.2-0.2c-4.8-4-6.4-5.7-7.1-6.7c-1.7-2.2-1.3-5.3,0.9-7c2.2-1.7,5.3-1.3,7,0.9c0,0.1,0.1,0.1,0.2,0.2 c1.8-6.1,5.2-11.7,9.9-16.4c3.6-3.6,8.4-7,14.3-10.3c3-1.7,7.3-3.9,12.5-6.6c3.8-2.4,4.2-3.7,4.2-3.8c0.2-0.7,0.7-2.7-3.6-6.1 c-3.3-2.5-7.5-4.5-12.7-5.9c0,0,0,0,0,0c-5.8-1.6-12.1-1.8-18.7-0.7c-6.3,1.1-12.5,3.4-18.2,6.8C97,15.9,92.2,20,88.4,24.8 c-3.2,4-5.4,8.2-6.8,12.4c2.1,0.8,4.2,1.7,6.4,2.7c2.5,1.1,3.6,4.1,2.5,6.6c-1.1,2.5-4.1,3.6-6.6,2.5c-3.4-1.6-6.7-2.9-9.9-4 c0,0,0,0,0,0c-15.4-5.5-28.6-6-39.3-1.5C24,48,15.2,57.6,8.6,72.1C4.8,82.3,4.8,86.6,5.1,88.2c0.4,2.2,1.1,3.4,1.6,3.6 c0.4,0,2-0.1,5.9-1.3c2.6-0.8,7.1-2.4,13.5-4.6c0.1,0,0.1,0,0.2-0.1c14.7-4.6,28-5.3,39.6-2.2c5.2,1.4,9.8,4,13.8,7.6 c3,2.7,6.3,6.7,10.2,12.1c0,0,0,0.1,0.1,0.1c2,3,5.6,8.2,10.7,15.6c4.9,6.6,10.2,12.8,15.6,18.5c8.6,8.9,16.5,16.2,23.5,21.8 c10,7.9,20.6,14.4,31.5,19.2C180.6,182.7,192.9,188,207.7,194.3z M238.9,109.2C238.9,109.2,238.9,109.2,238.9,109.2 S238.9,109.2,238.9,109.2z"></path></g></g>=<g transform="matrix( 2.9166107177734375, 0, 0, 2.9166107177734375, 468.15,1761.65) "><g transform="matrix( 1, 0, 0, 1, 0,0) "><path d="M212.3,206.8c-0.8,0-1.5-0.2-2.2-0.5c-1.7-0.8-3.8-1.8-6.2-2.7h-0.1c-14.9-6.3-27.2-11.7-36.7-15.9 c-11.6-5.2-22.9-12.1-33.6-20.5c-7.3-5.8-15.5-13.4-24.4-22.6c-5.8-6-11.4-12.6-16.5-19.5l-0.1-0.1c-5.1-7.3-8.7-12.6-10.7-15.6 c-3.4-4.8-6.3-8.3-8.7-10.4c-2.9-2.6-6.1-4.3-9.7-5.3c-9.7-2.6-21.1-1.9-34,2.1c-6.4,2.3-11,3.8-13.6,4.7 c-5.2,1.7-8.7,2.2-11.4,1.6c-0.1,0-0.1,0-0.2,0C1,100.7-3.1,98-4.6,90.2c-1-4.9,0.2-11.8,3.9-21.8c0-0.1,0.1-0.2,0.1-0.3 c7.7-17,18.3-28.4,31.4-33.8c11.8-4.9,25.7-5,41.4-0.4c1.7-5.3,4.5-10.5,8.4-15.3l0,0C85.2,12.9,91,7.9,97.6,4 c6.8-4,14-6.7,21.6-8.1c8-1.4,15.7-1.1,23,0.8c6.4,1.7,11.9,4.3,16.3,7.6c7.9,6.2,8.2,12.4,7.1,16.6c-1,3.5-3.8,6.7-8.8,9.8 c-0.1,0.1-0.2,0.1-0.4,0.2c-5.2,2.7-9.4,4.8-12.4,6.5l0,0c-5.1,2.8-9.2,5.7-12.1,8.7c-3.8,3.8-6.3,8.1-7.7,13 c-0.4,1.4-0.7,2.5-0.9,3.6c3.7,2.9,7.7,5.7,11.9,8.5c15.7,10.3,32.2,17.8,49,22.3c12.2,3.3,25,5.1,37.9,5.6 c3.2,0.1,7.2,0.2,12,0.2c5.4-0.2,6.7,0,7.5,0.2h0.1c2.9,0.8,5.5,3.1,7.8,6.9c2,3.2,3.6,7.2,4.7,11.8c2.8,11,2.7,22.4-0.3,33.8 c-3.3,12.2-8.4,23-15.3,31.9c-5,6.5-11.3,12.8-18.9,18.6c-1.5,1.1-3,2.2-4.5,3.3C214.4,206.5,213.4,206.8,212.3,206.8z  M207.7,194.3c1.5,0.6,2.8,1.2,4.1,1.7c0.6-0.5,1.3-0.9,1.9-1.4c6.8-5.3,12.6-10.9,17-16.7c6-7.9,10.6-17.5,13.5-28.4 c2.6-9.7,2.7-19.4,0.3-28.8l0,0c-0.9-3.6-2.1-6.6-3.6-9c0,0,0-0.1-0.1-0.1c-0.9-1.5-1.5-2.2-1.8-2.4c-0.6,0-1.9-0.1-4.8,0h-0.1 c-4.9,0-9.1-0.1-12.5-0.2c-13.7-0.5-27.2-2.5-40.1-6c-17.8-4.8-35.3-12.7-51.9-23.6c-5.4-3.6-10.5-7.3-15.2-11 c-0.1-0.1-0.2-0.2-0.3-0.3c-0.1-0.1-0.2-0.1-0.2-0.2c-4.8-4-6.4-5.7-7.1-6.7c-1.7-2.2-1.3-5.3,0.9-7c2.2-1.7,5.3-1.3,7,0.9 c0,0.1,0.1,0.1,0.2,0.2c1.8-6.1,5.2-11.7,9.9-16.4c3.6-3.6,8.4-7,14.3-10.3c3-1.7,7.3-3.9,12.5-6.6c3.8-2.4,4.2-3.7,4.2-3.8 c0.2-0.7,0.7-2.7-3.6-6.1c-3.3-2.5-7.5-4.5-12.7-5.9l0,0c-5.8-1.6-12.1-1.8-18.7-0.7c-6.3,1.1-12.5,3.4-18.2,6.8 C97,15.9,92.2,20,88.4,24.8c-3.2,4-5.4,8.2-6.8,12.4c2.1,0.8,4.2,1.7,6.4,2.7c2.5,1.1,3.6,4.1,2.5,6.6s-4.1,3.6-6.6,2.5 c-3.4-1.6-6.7-2.9-9.9-4l0,0c-15.4-5.5-28.6-6-39.3-1.5S15.2,57.6,8.6,72.1C4.8,82.3,4.8,86.6,5.1,88.2c0.4,2.2,1.1,3.4,1.6,3.6 c0.4,0,2-0.1,5.9-1.3c2.6-0.8,7.1-2.4,13.5-4.6c0.1,0,0.1,0,0.2-0.1c14.7-4.6,28-5.3,39.6-2.2c5.2,1.4,9.8,4,13.8,7.6 c3,2.7,6.3,6.7,10.2,12.1c0,0,0,0.1,0.1,0.1c2,3,5.6,8.2,10.7,15.6c4.9,6.6,10.2,12.8,15.6,18.5c8.6,8.9,16.5,16.2,23.5,21.8 c10,7.9,20.6,14.4,31.5,19.2C180.6,182.7,192.9,188,207.7,194.3z M238.9,109.2L238.9,109.2L238.9,109.2z"></path></g></g><g transform="matrix(2.9166107177734375, 0, 0, 2.9166107177734375, 1463.45,1961.9)"><g transform="matrix(1, 0, 0, 1, 0, 0)"><path fill="#A17E52" d="M6,171.3c-0.5,6.9-0.5,13.1-0.1,18.6c2.6,12.2,6.7,22.6,12.1,31.2c5.5,8.6,11.4,12.6,17.6,11.8
					c6.3-0.7,12.6-4.2,18.9-10.5c6.2-6.3,11.5-13.7,15.8-22.4c0.7-1.3,1.3-2.6,1.9-3.9c3.8-8.9,6.7-17.2,8.7-24.7
					c3.3-18,5.3-35.2,6.1-51.5c0.2-5.5,0.3-9,0.3-10.5l-73.1-5C14.5,121.4,11.8,143.8,6,171.3z"></path><path d="M34.3,238.1c-7.5,0-14.3-4.8-20.3-14.2C8.2,214.8,3.9,203.7,1.1,191c0-0.2-0.1-0.4-0.1-0.6c-0.5-5.7-0.5-12.3,0-19.4
				c0-0.2,0-0.4,0.1-0.7c5.6-27.1,8.4-49.3,8.1-65.9c0-2.8,2.2-5,4.9-5.1c0,0,0,0,0.1,0c2.7,0,5,2.2,5,4.9
				c0.2,17.3-2.6,40.1-8.3,67.8c-0.4,6.4-0.5,12.1,0,17.2c2.5,11.4,6.3,21.3,11.4,29.3c4.3,6.8,8.6,10,12.8,9.5
				c5.1-0.6,10.5-3.7,15.9-9.1c5.8-5.8,10.8-13,14.9-21.1c0,0,0-0.1,0-0.1c0.6-1.2,1.2-2.4,1.7-3.6c3.7-8.6,6.5-16.6,8.4-23.8
				c3.3-17.6,5.3-34.6,5.9-50.7c0.2-5.4,0.3-8.9,0.3-10.4c0.1-2.8,2.3-4.9,5.1-4.9c2.8,0.1,5,2.3,4.9,5.1c0,1.6-0.1,5-0.4,10.6
				c-0.7,16.6-2.8,34.2-6.1,52.3c0,0.1-0.1,0.3-0.1,0.4c-2.1,7.7-5.1,16.3-8.9,25.4c-0.6,1.4-1.3,2.9-2,4.2
				c-4.5,9.1-10.1,17.1-16.7,23.7c-7,7.1-14.4,11.1-21.8,12C35.7,238,35,238.1,34.3,238.1z"></path></g></g><g transform="matrix( 2.9166107177734375, 0, 0, 2.9166107177734375, 1463.45,1961.9)"><g transform="matrix( 1, 0, 0, 1, 0,0) "><path d="M34.3,238.1c-7.5,0-14.3-4.8-20.3-14.2C8.2,214.8,3.9,203.7,1.1,191c0-0.2-0.1-0.4-0.1-0.6c-0.5-5.7-0.5-12.3,0-19.4     c0-0.2,0-0.4,0.1-0.7c5.6-27.1,8.4-49.3,8.1-65.9c0-2.8,2.2-5,4.9-5.1c2.8,0,5,2.2,5.1,4.9c0.2,17.3-2.6,40.1-8.3,67.8     c-0.4,6.4-0.5,12.1,0,17.2c2.5,11.4,6.3,21.3,11.4,29.3c4.3,6.8,8.6,10,12.8,9.5c5.1-0.6,10.5-3.7,15.9-9.1     c5.8-5.8,10.8-13,14.9-21.1v-0.1c0.6-1.2,1.2-2.4,1.7-3.6c3.7-8.6,6.5-16.6,8.4-23.8c3.3-17.6,5.3-34.6,5.9-50.7     c0.2-5.4,0.3-8.9,0.3-10.4c0.1-2.7,2.3-4.9,5-4.9h0.1c2.8,0.1,5,2.3,4.9,5.1c0,1.6-0.1,5-0.4,10.6c-0.7,16.6-2.8,34.2-6.1,52.3     c0,0.1-0.1,0.3-0.1,0.4c-2.1,7.7-5.1,16.3-8.9,25.4c-0.6,1.4-1.3,2.9-2,4.2c-4.5,9.1-10.1,17.1-16.7,23.7     c-7,7.1-14.4,11.1-21.8,12C35.7,238,35,238.1,34.3,238.1z"></path></g></g><g transform="matrix(2.9166107177734375, 0, 0, 2.9166107177734375, 1181.8,460.1)"><g transform="matrix(1, 0, 0, 1, 0, 0)"><path fill="#A17E52" d="M-52.8,174.8c-8.8,2.5-18.1,5.6-28.1,9.5c-24,9.4-47.4,21.1-70,35.1c-23.6,14.6-42.5,29.4-56.6,44.4      c-15.5,16.5-23.2,31.3-23.2,44.5c0,8.5,2.9,14.8,8.7,18.9c4.9,3.5,12.1,5.6,21.8,6.2c6.2,0.4,15.6,0.3,28.2-0.4      c13.5-0.7,22.9-1,28.3-0.8c21.2,1,42.3,5.9,63.3,14.8c7.8,3.4,14.7,6.8,20.7,10.4c-1.6-4.8-3.1-9.7-4.5-14.7      c-2.3-10.3-4.6-20.8-6.7-31.4c-5.7-27.9-6-55.4-0.8-82.4C-67.9,209.6-61.6,191.5-52.8,174.8z"></path><path d="M-59.7,362.5c-0.9,0-1.7-0.2-2.5-0.7c-5.8-3.4-12.6-6.8-20.2-10.1c-20.3-8.6-41-13.4-61.5-14.4     c-5.2-0.2-14.6,0.1-27.8,0.8c-13,0.7-22.4,0.8-28.9,0.4c-10.7-0.7-18.7-3.1-24.4-7.2c-7.2-5.1-10.8-12.8-10.8-23     c0-14.6,8.1-30.2,24.6-47.9c14.3-15.3,33.7-30.5,57.6-45.3c22.8-14.2,46.6-26.1,70.8-35.6c10.1-3.9,19.7-7.2,28.6-9.7     c2.7-0.7,5.4,0.8,6.2,3.5c0.7,2.7-0.8,5.4-3.5,6.2c-8.6,2.4-17.9,5.6-27.7,9.4c-23.6,9.2-46.9,20.9-69.2,34.7     c-23.1,14.3-41.8,29-55.5,43.6c-14.5,15.5-21.9,29.3-21.9,41c0,6.8,2.2,11.7,6.6,14.8c0,0,0,0,0,0c4.1,2.9,10.5,4.7,19.2,5.3     c5.9,0.4,15.2,0.3,27.6-0.4c13.8-0.7,23.2-1,28.8-0.8c0,0,0,0,0,0c21.7,1,43.6,6.1,65,15.1c0,0,0,0,0,0c8,3.4,15.1,7,21.3,10.7     c2.4,1.4,3.2,4.5,1.8,6.8C-56.3,361.6-57.9,362.5-59.7,362.5z"></path></g></g><g transform="matrix( 2.9166107177734375, 0, 0, 2.9166107177734375, 1181.8,460.1) "><g transform="matrix( 1, 0, 0, 1, 0,0) "><path d="M-59.7,362.5c-0.9,0-1.7-0.2-2.5-0.7c-5.8-3.4-12.6-6.8-20.2-10.1c-20.3-8.6-41-13.4-61.5-14.4 c-5.2-0.2-14.6,0.1-27.8,0.8c-13,0.7-22.4,0.8-28.9,0.4c-10.7-0.7-18.7-3.1-24.4-7.2c-7.2-5.1-10.8-12.8-10.8-23 c0-14.6,8.1-30.2,24.6-47.9c14.3-15.3,33.7-30.5,57.6-45.3c22.8-14.2,46.6-26.1,70.8-35.6c10.1-3.9,19.7-7.2,28.6-9.7 c2.7-0.7,5.4,0.8,6.2,3.5c0.7,2.7-0.8,5.4-3.5,6.2c-8.6,2.4-17.9,5.6-27.7,9.4c-23.6,9.2-46.9,20.9-69.2,34.7 c-23.1,14.3-41.8,29-55.5,43.6c-14.5,15.5-21.9,29.3-21.9,41c0,6.8,2.2,11.7,6.6,14.8l0,0c4.1,2.9,10.5,4.7,19.2,5.3 c5.9,0.4,15.2,0.3,27.6-0.4c13.8-0.7,23.2-1,28.8-0.8l0,0c21.7,1,43.6,6.1,65,15.1l0,0c8,3.4,15.1,7,21.3,10.7 c2.4,1.4,3.2,4.5,1.8,6.8C-56.3,361.6-57.9,362.5-59.7,362.5z"></path></g></g><g transform="matrix(2.9166107177734375, 0, 0, 2.9166107177734375, 956.5,1516.1)"><g transform="matrix(1, 0, 0, 1, 0, 0)"><path fill="#A17E52" d="M156.9,0.3c-0.5,0-1-0.1-1.5-0.1c0.3,0,0.5,0.1,0.8,0.1C156.5,0.3,156.7,0.3,156.9,0.3L156.9,0.3L156.9,0.3 M155.4,0.2H155c-0.3,0-0.7,0-1,0c0.7,0.1,1.5,0.1,2.2,0.1C156,0.2,155.7,0.2,155.4,0.2 M209,15.8c-1.3-0.7-2.7-1.3-4.1-2      c-15-7.2-31.1-11.7-48.1-13.4h-0.1c-0.2,0-0.4-0.1-0.7-0.1c-0.7,0-1.5-0.1-2.2-0.1l-2.6,0c-0.2,0-0.4,0-0.6,0h-1.4      c-0.3,0-0.7,0-1,0H145c-0.3,0-0.7,0-1.1,0c0,0-0.1,0-0.1,0h-1.2c-0.4,0-0.8,0-1.1,0c-1.1,0-2.1,0.1-3.2,0.1c-0.3,0-0.6,0-0.9,0      c-0.1,0-0.2,0-0.3,0c-13.3,1.3-26,4.3-38.2,8.9c-3.6,1.4-7.1,2.9-10.6,4.6C44.2,34.9,16.9,69,6.4,115.9      c-3.5,24-5.6,47.3-6.4,70.2c-0.4,22.1,3.9,40.8,13,56c18.4,30.8,56.3,47.6,113.6,50.2c2.7,0.1,5.4,0.2,8.2,0.3      c0.5,0,1.1,0,1.6,0l5.4,0.1c0.3,0,0.7,0,1.1,0h0.9c0.1,0,0.1,0,0.1,0h1.1c0.3,0,0.5,0,0.8,0h2.9c0.2,0,0.4,0,0.5,0      c0,0,0.1,0,0.2,0c0.6,0,1.3,0,1.9,0l5.4-0.1c0.5,0,1.1,0,1.6,0c2.4-0.1,4.8-0.1,7.1-0.2l20.4-1.6l19.2-3      c0.9-0.2,1.8-0.3,2.6-0.5c6.9-1.5,13.4-3.3,19.4-5.4c24.4-8.4,42-21.7,52.9-39.8c9.1-15.2,13.5-33.9,13.1-56      c-0.8-22.8-2.9-46.2-6.4-70.2C276.7,70.4,250.7,37,209,15.8z"></path><path d="M151.4,297.8h-9.5c0,0-0.1,0-0.1,0l-5.4-0.1h-1.6c0,0-0.1,0-0.1,0c-2.8-0.1-5.6-0.2-8.3-0.3c-29.2-1.4-53.8-6.4-73.2-15 c-19.8-8.8-34.8-21.5-44.5-37.7C-0.7,228.7-5.4,209-4.9,186c0,0,0-0.1,0-0.1c0.8-22.9,2.9-46.7,6.4-70.7c0-0.1,0-0.2,0.1-0.4 C7,90.7,16.8,69.6,30.9,52C45,34.5,63.6,20.1,86.2,9.2c3.6-1.7,7.3-3.3,11-4.7c12.5-4.8,25.7-7.9,39.4-9.2c0,0,0.1,0,0.1,0l0.3,0 c0.3,0,0.6,0,0.8-0.1c0.1,0,0.2,0,0.3,0l3-0.1c0.4,0,0.9-0.1,1.4-0.1h8.2c0.3,0,0.7,0,1,0.1l2.4,0.1c0.1,0,0.1,0,0.2,0 c0.3,0,0.7,0,1,0l0.4,0c0,0,0.1,0,0.1,0c0,0,0.1,0,0.1,0c0.3,0,0.6,0.1,0.9,0.1c0,0,0,0,0,0c0.2,0,0.5,0.1,0.7,0.1 c17.5,1.8,34.2,6.4,49.7,13.9c1.4,0.7,2.8,1.4,4.2,2.1c21.4,10.9,39,25.2,52.4,42.4c13.4,17.2,22.8,37.8,28,61.1 c0,0.1,0.1,0.2,0.1,0.4c3.5,24,5.7,47.8,6.4,70.7c0,0,0,0.1,0,0.1c0.4,23-4.2,42.7-13.8,58.7c-11.4,19.2-30.1,33.3-55.6,42 c-6.2,2.1-13,4-20,5.5c-0.9,0.2-1.8,0.4-2.6,0.5c-0.1,0-0.1,0-0.2,0l-19.2,3c-0.1,0-0.3,0-0.4,0l-20.3,1.6c-0.1,0-0.2,0-0.2,0 c-2.4,0.1-4.8,0.1-7.2,0.2c0,0-0.1,0-0.1,0h-1.6L151.4,297.8C151.5,297.8,151.5,297.8,151.4,297.8z M141.9,287.8h9.5l5.4-0.1 c0,0,0.1,0,0.1,0h1.5c2.3-0.1,4.7-0.1,7-0.2l20-1.6l19-3c0.8-0.2,1.6-0.3,2.4-0.5c6.6-1.4,13-3.2,18.8-5.2 c23.2-7.9,40.1-20.6,50.3-37.7c8.6-14.4,12.7-32.3,12.4-53.4c-0.8-22.4-2.9-45.8-6.3-69.4c-4.9-21.8-13.7-41-26.1-57 c-12.5-16-29-29.4-49-39.6c-1.3-0.7-2.6-1.3-4-2c-14.4-6.9-30-11.3-46.3-12.9c-0.1,0-0.3,0-0.4,0c-0.1,0-0.3,0-0.4-0.1 c-0.7,0-1.3-0.1-2-0.1L151.2,5c-0.2,0-0.4,0-0.6,0h-8c-0.2,0-0.4,0-0.6,0c-0.1,0-0.2,0-0.3,0l-3.1,0.1c-0.2,0-0.5,0-0.8,0.1 l-0.3,0c-12.8,1.2-25.1,4.1-36.8,8.6c-3.5,1.3-6.9,2.8-10.3,4.4c-21.3,10.2-38.7,23.7-51.8,40c-13.1,16.3-22.3,36-27.3,58.6 c-3.4,23.6-5.6,46.9-6.3,69.4c-0.4,21.1,3.8,39,12.3,53.4c8.6,14.4,22.1,25.8,39.9,33.7c18.3,8.1,41.7,12.9,69.6,14.2 c2.6,0.1,5.3,0.2,8,0.3h1.5c0,0,0.1,0,0.1,0L141.9,287.8z"></path></g></g><g transform="matrix(2.9166107177734375, 0, 0, 2.9166107177734375, 956.5,1516.1)"><g transform="matrix(1, 0, 0, 1, 0, 0)"><g fill="#D5D2EA"><path d="M209,15.8c-1.3-0.7-2.7-1.3-4.1-2c-15-7.2-31.1-11.7-48.1-13.4h-0.1c-0.2,0-0.4-0.1-0.7-0.1 c-0.7,0-1.5-0.1-2.2-0.1l-2.6,0c-0.2,0-0.4,0-0.6,0h-1.4c-0.3,0-0.7,0-1,0H145c-0.3,0-0.7,0-1.1,0c0,0-0.1,0-0.1,0h-1.2 c-0.4,0-0.8,0-1.1,0c-1.1,0-2.1,0.1-3.2,0.1v0c-0.3,0-0.6,0-0.9,0l-0.3,0c-13.3,1.3-26,4.3-38.2,8.9 c53,77.4,62.2,171.9,27.7,283.2c2.7,0.1,5.4,0.2,8.2,0.3c0.5,0,1.1,0,1.6,0l5.4,0.1c0.3,0,0.7,0,1.1,0h0.9c0.1,0,0.1,0,0.1,0 h1.1c0.3,0,0.5,0,0.8,0h2.9c0.2,0,0.4,0,0.5,0c0,0,0.1,0,0.2,0c0.6,0,1.3,0,1.9,0l5.4-0.1c0.5,0,1.1,0,1.6,0 c2.4-0.1,4.8-0.1,7.1-0.2l20.4-1.6l19.2-3c0.9-0.2,1.8-0.3,2.6-0.5c6.9-1.5,13.4-3.3,19.4-5.4C273.6,209.4,267.5,120.7,209,15.8 z"></path></g><path d="M151.4,297.8h-9.5c0,0-0.1,0-0.1,0l-5.4-0.1h-1.6c0,0-0.1,0-0.1,0c-2.8-0.1-5.6-0.2-8.3-0.3c-29.2-1.4-53.8-6.4-73.2-15 c-19.8-8.8-34.8-21.5-44.5-37.7C-0.7,228.7-5.4,209-4.9,186c0,0,0-0.1,0-0.1c0.8-22.9,2.9-46.7,6.4-70.7c0-0.1,0-0.2,0.1-0.4 C7,90.7,16.8,69.6,30.9,52C45,34.5,63.6,20.1,86.2,9.2c3.6-1.7,7.3-3.3,11-4.7c12.5-4.8,25.7-7.9,39.4-9.2c0,0,0.1,0,0.1,0l0.3,0 c0.3,0,0.5,0,0.8-0.1c0.1,0,0.2,0,0.3,0l3-0.1c0.4,0,0.9-0.1,1.4-0.1h8.2c0.3,0,0.7,0,1,0.1l2.4,0.1c0.1,0,0.1,0,0.2,0 c0.3,0,0.6,0,1,0c0.5,0,1,0.1,1.5,0.1c0,0,0,0,0,0c0.2,0,0.4,0.1,0.7,0.1c17.5,1.8,34.2,6.4,49.7,13.9c1.4,0.7,2.8,1.4,4.2,2.1 c21.4,10.9,39,25.2,52.4,42.4c13.4,17.2,22.8,37.8,28,61.1c0,0.1,0.1,0.2,0.1,0.4c3.5,24,5.7,47.8,6.4,70.7c0,0,0,0.1,0,0.1 c0.4,23-4.2,42.7-13.8,58.7c-11.4,19.2-30.1,33.3-55.6,42c-6.2,2.1-13,4-20,5.5c-0.9,0.2-1.8,0.4-2.6,0.5c-0.1,0-0.1,0-0.2,0 l-19.2,3c-0.1,0-0.3,0-0.4,0l-20.3,1.6c-0.1,0-0.2,0-0.2,0c-2.4,0.1-4.8,0.1-7.2,0.2c0,0-0.1,0-0.1,0h-1.6L151.4,297.8 C151.5,297.8,151.5,297.8,151.4,297.8z M141.9,287.8h9.5l5.4-0.1c0,0,0.1,0,0.1,0h1.5c2.3-0.1,4.7-0.1,7-0.2l20-1.6l19-3 c0.8-0.2,1.6-0.3,2.4-0.5c6.6-1.4,13-3.2,18.8-5.2c23.2-7.9,40.1-20.6,50.3-37.7c8.6-14.4,12.7-32.3,12.4-53.4 c-0.8-22.4-2.9-45.8-6.3-69.4c-4.9-21.8-13.7-41-26.1-57c-12.5-16-29-29.4-49-39.6c-1.3-0.7-2.6-1.3-4-2 c-14.4-6.9-30-11.3-46.3-12.9c-0.1,0-0.3,0-0.4,0c-0.1,0-0.3,0-0.4-0.1c-0.7,0-1.3-0.1-2-0.1L151.2,5c-0.2,0-0.4,0-0.6,0h-8 c-0.2,0-0.4,0-0.6,0c-0.1,0-0.2,0-0.3,0l-3.1,0.1c-0.2,0-0.5,0-0.8,0.1l-0.3,0c-12.8,1.2-25.1,4.1-36.8,8.6 c-3.5,1.3-6.9,2.8-10.3,4.4c-21.3,10.2-38.7,23.7-51.8,40c-13.1,16.3-22.3,36-27.3,58.6c-3.4,23.6-5.6,46.9-6.3,69.4 c-0.4,21.1,3.8,39,12.3,53.4c8.6,14.4,22.1,25.8,39.9,33.7c18.3,8.1,41.7,12.9,69.6,14.2c2.6,0.1,5.3,0.2,8,0.3h1.5 c0,0,0.1,0,0.1,0L141.9,287.8z"></path></g></g><g transform="matrix(2.9166107177734375, 0, 0, 2.9166107177734375, 1042.6,1961.9)"><g transform="matrix(1, 0, 0, 1, 0, 0)"><path fill="#A17E52" d="M6,171.3c-0.5,6.9-0.5,13.1-0.1,18.6c2.6,12.2,6.7,22.6,12.1,31.2c5.5,8.6,11.4,12.6,17.6,11.8 c6.3-0.7,12.6-4.2,18.9-10.5c6.2-6.3,11.5-13.7,15.8-22.4c0.7-1.3,1.3-2.6,1.9-3.9c3.8-8.9,6.7-17.2,8.7-24.7 c3.3-18,5.3-35.2,6.1-51.5c0.2-5.5,0.3-9,0.3-10.5l-73.1-5C14.5,121.4,11.8,143.8,6,171.3z"></path><path d="M34.3,238.1c-7.5,0-14.3-4.8-20.3-14.2C8.2,214.8,3.9,203.7,1.1,191c0-0.2-0.1-0.4-0.1-0.6c-0.5-5.7-0.5-12.3,0-19.4 c0-0.2,0-0.4,0.1-0.7c5.6-27.1,8.4-49.3,8.1-65.9c0-2.8,2.2-5,4.9-5.1c2.8,0,5,2.2,5.1,4.9c0.2,17.3-2.6,40.1-8.3,67.8 c-0.4,6.4-0.5,12.1,0,17.2c2.5,11.4,6.3,21.3,11.4,29.3c4.3,6.8,8.6,10,12.8,9.5c5.1-0.6,10.5-3.7,15.9-9.1 c5.8-5.8,10.8-13,14.9-21.1c0,0,0-0.1,0-0.1c0.6-1.2,1.2-2.4,1.7-3.6c3.7-8.6,6.5-16.6,8.4-23.8c3.3-17.6,5.3-34.6,5.9-50.7 c0.2-5.4,0.3-8.9,0.3-10.4c0.1-2.7,2.3-4.9,5-4.9c0,0,0.1,0,0.1,0c2.8,0.1,5,2.3,4.9,5.1c0,1.6-0.1,5-0.4,10.6 c-0.7,16.6-2.8,34.2-6.1,52.3c0,0.1-0.1,0.3-0.1,0.4c-2.1,7.7-5.1,16.3-8.9,25.4c-0.6,1.4-1.3,2.9-2,4.2 c-4.5,9.1-10.1,17.1-16.7,23.7c-7,7.1-14.4,11.1-21.8,12C35.7,238,35,238.1,34.3,238.1z"></path></g></g><g transform="matrix( 2.9166107177734375, 0, 0, 2.9166107177734375, 1042.6,1961.9) "><g transform="matrix( 1, 0, 0, 1, 0,0) "><path d="M34.3,238.1c-7.5,0-14.3-4.8-20.3-14.2C8.2,214.8,3.9,203.7,1.1,191c0-0.2-0.1-0.4-0.1-0.6c-0.5-5.7-0.5-12.3,0-19.4     c0-0.2,0-0.4,0.1-0.7c5.6-27.1,8.4-49.3,8.1-65.9c0-2.8,2.2-5,4.9-5.1c2.8,0,5,2.2,5.1,4.9c0.2,17.3-2.6,40.1-8.3,67.8     c-0.4,6.4-0.5,12.1,0,17.2c2.5,11.4,6.3,21.3,11.4,29.3c4.3,6.8,8.6,10,12.8,9.5c5.1-0.6,10.5-3.7,15.9-9.1     c5.8-5.8,10.8-13,14.9-21.1v-0.1c0.6-1.2,1.2-2.4,1.7-3.6c3.7-8.6,6.5-16.6,8.4-23.8c3.3-17.6,5.3-34.6,5.9-50.7     c0.2-5.4,0.3-8.9,0.3-10.4c0.1-2.7,2.3-4.9,5-4.9h0.1c2.8,0.1,5,2.3,4.9,5.1c0,1.6-0.1,5-0.4,10.6c-0.7,16.6-2.8,34.2-6.1,52.3     c0,0.1-0.1,0.3-0.1,0.4c-2.1,7.7-5.1,16.3-8.9,25.4c-0.6,1.4-1.3,2.9-2,4.2c-4.5,9.1-10.1,17.1-16.7,23.7     c-7,7.1-14.4,11.1-21.8,12C35.7,238,35,238.1,34.3,238.1z"></path></g></g><g transform="matrix(2.9166107177734375, 0, 0, 2.9166107177734375, 1002.9,1719.3)"><g transform="matrix(1, 0, 0, 1, 0, 0)"><path fill="#A17E52" d="M15.6,43.5c-6,16-10,32.3-12.1,49.1c-0.7,5.4-1.3,10.8-1.9,16.1c-0.9,6.2,0.5,13.1,4.2,20.7 c3.4,6,8,12,13.5,17.8c5.6,5.9,10.8,8.9,15.5,8.9c4.8,0,10-2.7,15.8-8.1c5.4-5,9.4-9.5,11.9-13.5c4-6.2,6.3-12.2,7-18.1 c1.2-14,3.8-28.1,7.7-42.3c3.9-14.2,12.5-29.8,25.9-46.8L49.7,0C33.7,10.8,22.4,25.3,15.6,43.5z"></path><path d="M34.8,161.1c-6.2,0-12.5-3.4-19.1-10.4C9.8,144.5,5,138.2,1.4,131.8c-0.1-0.1-0.1-0.2-0.1-0.3 c-4.2-8.5-5.7-16.4-4.7-23.5c0.6-5.3,1.2-10.8,1.9-16.1c2.2-17.1,6.4-34,12.4-50.2c7.1-19,19.2-34.5,36-45.8 c2.3-1.5,5.4-0.9,6.9,1.3c1.5,2.3,0.9,5.4-1.3,6.9c-15,10.2-25.9,24-32.3,41.1c-5.8,15.5-9.8,31.7-11.9,48 c-0.7,5.3-1.3,10.8-1.9,16.1c0,0.1,0,0.1,0,0.2c-0.8,5.1,0.5,11,3.7,17.6c3.2,5.6,7.5,11.2,12.8,16.8c4.5,4.8,8.6,7.3,11.9,7.3 c0,0,0,0,0,0c3.4,0,7.7-2.3,12.4-6.7c5-4.7,8.8-8.9,11.2-12.6c3.5-5.5,5.7-10.9,6.3-15.9c1.3-14.2,3.9-28.7,7.8-43.1 c4-14.8,13-31.2,26.8-48.6c1.7-2.2,4.9-2.5,7-0.8c2.2,1.7,2.5,4.9,0.8,7c-12.9,16.4-21.3,31.6-25,45.1 c-3.8,13.9-6.3,27.9-7.5,41.5c0,0.1,0,0.1,0,0.2c-0.8,6.6-3.4,13.4-7.8,20.2c-2.9,4.4-7,9.2-12.8,14.5 C47.3,158,41,161,34.8,161.1C34.8,161,34.8,161.1,34.8,161.1z"></path></g></g><g transform="matrix(2.9166107177734375, 0, 0, 2.9166107177734375, 1002.9,1719.3)"><g transform="matrix( 1, 0, 0, 1, 0,0) "><path d="M34.8,161.1c-6.2,0-12.5-3.4-19.1-10.4C9.8,144.5,5,138.2,1.4,131.8c-0.1-0.1-0.1-0.2-0.1-0.3 c-4.2-8.5-5.7-16.4-4.7-23.5c0.6-5.3,1.2-10.8,1.9-16.1c2.2-17.1,6.4-34,12.4-50.2c7.1-19,19.2-34.5,36-45.8 c2.3-1.5,5.4-0.9,6.9,1.3c1.5,2.3,0.9,5.4-1.3,6.9c-15,10.2-25.9,24-32.3,41.1c-5.8,15.5-9.8,31.7-11.9,48 c-0.7,5.3-1.3,10.8-1.9,16.1c0,0.1,0,0.1,0,0.2c-0.8,5.1,0.5,11,3.7,17.6c3.2,5.6,7.5,11.2,12.8,16.8c4.5,4.8,8.6,7.3,11.9,7.3 c0,0,0,0,0,0c3.4,0,7.7-2.3,12.4-6.7c5-4.7,8.8-8.9,11.2-12.6c3.5-5.5,5.7-10.9,6.3-15.9c1.3-14.2,3.9-28.7,7.8-43.1 c4-14.8,13-31.2,26.8-48.6c1.7-2.2,4.9-2.5,7-0.8c2.2,1.7,2.5,4.9,0.8,7c-12.9,16.4-21.3,31.6-25,45.1 c-3.8,13.9-6.3,27.9-7.5,41.5c0,0.1,0,0.1,0,0.2c-0.8,6.6-3.4,13.4-7.8,20.2c-2.9,4.4-7,9.2-12.8,14.5 C47.3,158,41,161,34.8,161.1C34.8,161,34.8,161.1,34.8,161.1z"></path></g></g><g transform="matrix(2.9166107177734375, 0, 0, 2.9166107177734375, 848.15,585.65)"><g transform="matrix(1, 0, 0, 1, 0, 0)"><path fill="#A17E52" d="M496.9,137.5L496.9,137.5c-4-4.2-8.4-8-13.1-11.3c-16.3-11.4-34.2-19.6-53.8-24.5c-4.8-1.9-10-4-15.4-6.4 c-14.6-6.5-29.4-14.1-44.1-22.8c-3.6-2.1-8.3-5.4-14.1-9.8c-7.4-6.5-15.2-12.6-23.2-18.2c-14.9-10.4-30.9-19.2-47.9-26.5 c-7.8-3.3-15.6-6.1-23.5-8.6c-22.1-6.8-44.9-10.3-68.4-10.6c-30.4-0.4-60.3,3.4-89.4,11.5c-9.2,3.1-18.1,7.3-26.7,12.4 C58.3,34.1,42.4,49.4,29.5,68.5C16.6,87.7,7.8,109.2,3.3,132.8c-1.7,8.8-2.8,17.6-3.2,26.4c-0.8,16,0.5,32.2,3.8,48.6 c2,9.6,4,19,6.1,28.4C32.4,315.9,78.9,363.2,149.6,378c41.3,8.6,90.9,6.2,148.7-7.3l4.2-1.2c33-6.6,64.5-17.2,94.7-31.6 c6.5-3.2,13.1-6.3,19.7-9.4c17.5-9,33.6-20.3,48.1-33.9c12.7-11.8,24-24.8,34-39c12.5-18.6,19.6-37.1,21.2-55.6 c0.3-2.8,0.4-5.6,0.4-8.4c0-4.7-0.5-9.3-1.4-13.8c0-0.1,0-0.1,0-0.1c-2-9.8-6.2-19.1-12.5-28.2c-0.1-0.2-0.2-0.3-0.3-0.5 C503.7,145.1,500.5,141.3,496.9,137.5z"></path><path d="M201.8,388c-19,0-36.9-1.7-53.3-5.2c-36.2-7.6-66.6-23.7-90.4-48c-23.7-24.1-41.5-56.9-52.8-97.3c0-0.1,0-0.2-0.1-0.2 c-2.1-9.4-4.2-19-6.2-28.5c-3.4-16.7-4.7-33.4-3.9-49.8c0.4-9.1,1.5-18.2,3.3-27.2C3,107.7,12.1,85.4,25.4,65.8 c13.2-19.7,29.8-35.6,49.3-47.3c0,0,0,0,0,0c8.8-5.3,18.1-9.6,27.6-12.8c0.1,0,0.2-0.1,0.3-0.1c29.5-8.2,60.1-12.1,90.9-11.7 c23.9,0.3,47.4,4,69.8,10.9c8.1,2.5,16.1,5.4,24,8.7c17.2,7.3,33.6,16.4,48.8,27c8.1,5.6,16,11.8,23.5,18.4 c5.5,4.2,10.1,7.4,13.5,9.4c14.6,8.5,29.2,16.1,43.7,22.5c5.2,2.3,10.3,4.4,14.9,6.2c20,5,38.5,13.5,55.2,25.1 c5,3.5,9.6,7.5,13.8,11.9l0,0c0,0,0.1,0.1,0.1,0.1c3.7,3.9,7.1,7.9,9.9,12c0.1,0.2,0.3,0.4,0.4,0.6c6.7,9.5,11.2,19.6,13.3,30 c0,0.1,0,0.2,0.1,0.3c1,4.8,1.5,9.7,1.5,14.7c0,3-0.1,6-0.4,8.9c-1.7,19.2-9.2,38.7-22.1,57.9c0,0,0,0.1-0.1,0.1 c-10.1,14.5-21.8,27.8-34.7,39.8c-14.8,13.8-31.4,25.5-49.3,34.7c-0.1,0-0.1,0.1-0.2,0.1c-6.6,3.1-13.2,6.2-19.6,9.4c0,0,0,0,0,0 c-30.4,14.6-62.6,25.3-95.7,32l-4.1,1.1c0,0-0.1,0-0.1,0c-29.1,6.8-56.5,10.8-81.4,12.1C212.5,387.9,207.1,388,201.8,388z  M15,235c10.9,38.8,27.8,70,50.3,92.9c11.2,11.4,24.1,21,38.2,28.4c14.2,7.5,30,13.1,47.2,16.7c20.1,4.2,42.6,5.7,66.9,4.5 c24.3-1.2,51.1-5.2,79.6-11.8l4.2-1.1c0.1,0,0.2,0,0.3-0.1c32.4-6.5,63.9-17.1,93.5-31.3c6.5-3.2,13.1-6.3,19.7-9.4 c17-8.8,32.8-19.9,47-33.1c12.4-11.5,23.6-24.3,33.3-38.2c12-17.8,18.8-35.6,20.4-53.1c0.2-2.7,0.4-5.4,0.4-8 c0-4.3-0.4-8.6-1.3-12.8c0-0.1,0-0.2,0-0.2c-1.9-9-5.8-17.8-11.7-26.2c-0.1-0.1-0.1-0.2-0.2-0.3c0-0.1-0.1-0.1-0.1-0.2 c-2.6-3.7-5.6-7.3-9-10.9l0,0c0,0-0.1-0.1-0.1-0.1c-3.7-3.9-7.9-7.5-12.3-10.7c-15.7-11-33.2-19-52.1-23.7 c-0.2-0.1-0.4-0.1-0.6-0.2c-4.9-1.9-10.2-4.1-15.7-6.5c-14.7-6.6-29.8-14.3-44.6-23c-3.8-2.3-8.6-5.6-14.6-10.1 c-0.1-0.1-0.2-0.1-0.3-0.2c-7.3-6.4-14.9-12.4-22.8-17.8c-14.6-10.2-30.4-18.9-46.9-26c-7.6-3.2-15.3-6-23.1-8.4 c-21.5-6.6-44.1-10.1-67-10.5c-29.8-0.4-59.3,3.4-87.9,11.3c-8.8,3-17.4,7-25.6,11.9C61.6,38,46.1,52.9,33.6,71.3 c-12.5,18.5-21,39.5-25.4,62.4c-1.6,8.5-2.7,17.2-3.1,25.8c-0.8,15.5,0.5,31.4,3.7,47.3C10.8,216.2,12.9,225.7,15,235z"></path></g></g><g transform="matrix(2.9166107177734375, 0, 0, 2.9166107177734375, 848.15,585.65)"><g transform="matrix(1, 0, 0, 1, 0, 0)"><g fill="#D5D2EA"><path d="M416.9,328.4c17.5-9,33.6-20.3,48.1-33.9c12.7-11.8,24-24.8,34-39c12.5-18.6,19.6-37.1,21.2-55.6 c-28.9-7-57.3-10.3-85.2-10.1c-27.9,0.2-63.4,5.4-106.3,15.4c-42.9,10-76.8,20.6-101.6,31.8c-24.9,11.2-49.2,25-72.9,41.5 c-23.7,16.5-35.8,32.4-36.3,47.8c-0.5,15.4,3,27.3,10.6,35.8c4.7,5.3,11.7,10.5,21,15.9c41.3,8.6,90.9,6.2,148.7-7.3l4.2-1.2 c33-6.6,64.5-17.2,94.7-31.6C403.8,334.7,410.3,331.5,416.9,328.4z"></path></g><path d="M201.8,388c-19,0-36.9-1.7-53.3-5.2c-36.2-7.6-66.6-23.7-90.4-48c-23.7-24.1-41.5-56.9-52.8-97.3c0-0.1,0-0.2-0.1-0.2     c-2.1-9.4-4.2-19-6.2-28.5c-3.4-16.7-4.7-33.4-3.9-49.8c0.4-9.1,1.5-18.2,3.3-27.2C3,107.7,12.1,85.4,25.4,65.8     c13.2-19.7,29.8-35.6,49.3-47.3c0,0,0,0,0,0c8.8-5.3,18.1-9.6,27.6-12.8c0.1,0,0.2-0.1,0.3-0.1c29.5-8.2,60.1-12.1,90.9-11.7     c23.9,0.3,47.4,4,69.8,10.9c8.1,2.5,16.1,5.4,24,8.7c17.2,7.3,33.6,16.4,48.8,27c8.1,5.6,16,11.8,23.5,18.4     c5.5,4.2,10.1,7.4,13.5,9.4c14.6,8.5,29.2,16.1,43.7,22.5c5.2,2.3,10.3,4.4,14.9,6.2c20,5,38.5,13.5,55.2,25.1     c5,3.5,9.6,7.5,13.8,11.9l0,0c0,0,0.1,0.1,0.1,0.1c3.7,3.9,7.1,7.9,9.9,12c0.1,0.2,0.3,0.4,0.4,0.6c6.7,9.5,11.2,19.6,13.3,30     c0,0.1,0,0.2,0.1,0.3c1,4.8,1.5,9.7,1.5,14.7c0,3-0.1,6-0.4,8.9c-1.7,19.2-9.2,38.7-22.1,57.9c0,0,0,0.1-0.1,0.1     c-10.1,14.5-21.8,27.8-34.7,39.8c-14.8,13.8-31.4,25.5-49.3,34.7c-0.1,0-0.1,0.1-0.2,0.1c-6.6,3.1-13.2,6.2-19.6,9.4c0,0,0,0,0,0     c-30.4,14.6-62.6,25.3-95.7,32l-4.1,1.1c0,0-0.1,0-0.1,0c-29.1,6.8-56.5,10.8-81.4,12.1C212.5,387.9,207.1,388,201.8,388z      M15,235c10.9,38.8,27.8,70,50.3,92.9c11.2,11.4,24.1,21,38.2,28.4c14.2,7.5,30,13.1,47.2,16.7c20.1,4.2,42.6,5.7,66.9,4.5     c24.3-1.2,51.1-5.2,79.6-11.8l4.2-1.1c0.1,0,0.2,0,0.3-0.1c32.4-6.5,63.9-17.1,93.5-31.3c6.5-3.2,13.1-6.3,19.7-9.4     c17-8.8,32.8-19.9,47-33.1c12.4-11.5,23.6-24.3,33.3-38.2c12-17.8,18.8-35.6,20.4-53.1c0.2-2.7,0.4-5.4,0.4-8     c0-4.3-0.4-8.6-1.3-12.8c0-0.1,0-0.2,0-0.2c-1.9-9-5.8-17.8-11.7-26.2c-0.1-0.1-0.1-0.2-0.2-0.3c0-0.1-0.1-0.1-0.1-0.2     c-2.6-3.7-5.6-7.3-9-10.9l0,0c0,0-0.1-0.1-0.1-0.1c-3.7-3.9-7.9-7.5-12.3-10.7c-15.7-11-33.2-19-52.1-23.7     c-0.2-0.1-0.4-0.1-0.6-0.2c-4.9-1.9-10.2-4.1-15.7-6.5c-14.7-6.6-29.8-14.3-44.6-23c-3.8-2.3-8.6-5.6-14.6-10.1     c-0.1-0.1-0.2-0.1-0.3-0.2c-7.3-6.4-14.9-12.4-22.8-17.8c-14.6-10.2-30.4-18.9-46.9-26c-7.6-3.2-15.3-6-23.1-8.4     c-21.5-6.6-44.1-10.1-67-10.5c-29.8-0.4-59.3,3.4-87.9,11.3c-8.8,3-17.4,7-25.6,11.9C61.6,38,46.1,52.9,33.6,71.3     c-12.5,18.5-21,39.5-25.4,62.4c-1.6,8.5-2.7,17.2-3.1,25.8c-0.8,15.5,0.5,31.4,3.7,47.3C10.8,216.2,12.9,225.7,15,235z"></path></g></g><svg width="3000" height="3000" viewBox="0 0 3000 3000" fill="none" xmlns="http://www.w3.org/2000/svg"><path d="M1264.3 987.454C1259.2 959.923 1245.44 938.25 1223.7 922.897C1201.57 907.027 1177.39 901.96 1151.35 907.068C1125.3 912.175 1104.83 925.998 1090.33 949.052C1075.43 971.589 1070.82 996.568 1076.26 1024.33C1081.25 1051.29 1094.9 1072.39 1117.26 1087.92C1139.63 1103.44 1163.86 1108.8 1189.96 1103.98C1216.01 1098.87 1236.13 1084.82 1250.35 1061.82C1265.25 1039.28 1269.86 1014.3 1264.3 987.454ZM1216 947.292C1220.9 952.572 1223.28 958.644 1223.48 965.738C1223.63 972.545 1221.2 978.37 1216.21 983.213C1211.22 988.056 1205.14 990.436 1197.99 990.352C1191.19 990.498 1185.36 988.074 1180.52 983.079C1175.68 978.085 1173.01 972.069 1172.81 964.976C1172.61 957.882 1175.32 952.001 1180.6 947.102C1185.59 942.259 1191.38 939.935 1198.18 939.789C1205.05 939.929 1211.16 942.297 1216 947.292Z" fill="black"></path><path d="M1171.14 1120.15C1149.12 1120.01 1128.21 1113.41 1108.87 1099.67C1083.42 1082.07 1067.62 1057.53 1061.9 1026.85C1055.78 995.653 1061.09 966.674 1078.06 941.055C1094.63 914.92 1118.49 898.651 1148.54 892.758C1178.59 886.864 1206.54 892.975 1232.04 910.859C1256.91 928.569 1272.72 953.11 1278.61 984.648C1284.96 1015.5 1279.53 1043.91 1262.62 1069.81C1246.05 1095.95 1222.53 1112.45 1192.71 1118C1185.27 1119.46 1178.29 1120.23 1171.14 1120.15ZM1170.46 919.666C1165.14 919.817 1159.88 920.255 1154.15 921.378C1131.83 925.756 1115.08 937.361 1102.54 956.762C1089.71 976.219 1085.86 997.482 1090.52 1021.24C1094.78 1044.48 1106.32 1062.42 1125.55 1075.59C1144.49 1088.82 1164.72 1093.47 1187.04 1089.09C1209.08 1084.77 1225.83 1073.17 1238.03 1053.53C1238.03 1053.53 1238.03 1053.53 1238.26 1053.19C1251.08 1033.74 1254.71 1012.81 1250.16 989.632C1250.16 989.632 1250.16 989.632 1250.11 989.346C1245.68 965.249 1234.13 947.302 1215.19 934.076C1200.87 924.699 1186.25 919.839 1170.46 919.666Z" fill="black"></path><path d="M1210.49 1043.48C1210.29 1037.87 1208.36 1032.6 1204.54 1028.3C1200.5 1024.34 1195.64 1022.32 1190.04 1022.52C1184.66 1022.39 1179.96 1024.2 1176 1028.25C1171.75 1032.35 1169.73 1037.21 1169.66 1042.87C1169.86 1048.47 1171.73 1053.46 1175.78 1057.42C1179.82 1061.38 1184.39 1063.46 1190.06 1063.54C1195.66 1063.33 1200.64 1061.46 1204.66 1057.7C1208.68 1053.94 1210.7 1049.09 1210.49 1043.48ZM1236.58 965.844C1236.28 955.204 1232.42 946.152 1225.24 938.346C1217.84 930.882 1208.81 927.302 1198.17 927.606C1188.05 927.511 1179.23 931.024 1171.76 938.432C1164.01 945.896 1160.15 954.976 1160.16 965.672C1160.47 976.312 1164.32 985.364 1171.73 992.827C1179.14 1000.29 1187.93 1004.21 1198 1004.02C1208.7 1004.01 1217.75 1000.15 1225.55 992.972C1232.91 984.992 1236.83 976.198 1236.58 965.844Z" fill="white"></path><path d="M1196.37 1165.43C1174.33 1169.75 1156.29 1176.26 1142.01 1185.3C1127.73 1194.34 1121.41 1203.02 1123.04 1211.32C1124.66 1219.61 1133.8 1225.25 1150.43 1228.23C1167.06 1231.21 1186.23 1230.43 1208.26 1226.11C1230.02 1221.84 1248.06 1215.33 1262.33 1206.29C1276.67 1197.53 1283.28 1188.81 1281.59 1180.22C1279.91 1171.63 1270.83 1166.28 1253.92 1163.36C1237.57 1160.32 1218.4 1161.11 1196.37 1165.43Z" fill="#CF80A6"></path><path d="M1669.93 907.609C1664.83 880.077 1651.07 858.405 1629.34 843.051C1607.26 827.468 1583.08 822.401 1557.04 827.509C1530.99 832.616 1510.52 846.439 1496.02 869.492C1481.12 892.03 1476.51 917.009 1481.96 944.77C1486.95 971.729 1500.59 992.83 1522.96 1008.36C1545.32 1023.88 1569.55 1029.24 1595.65 1024.42C1621.7 1019.31 1641.83 1005.26 1656.33 982.202C1670.94 959.721 1675.55 934.742 1669.93 907.609ZM1621.69 867.732C1626.59 873.013 1628.97 879.085 1629.12 885.892C1629.27 892.699 1626.84 898.525 1621.85 903.368C1616.85 908.211 1610.78 910.591 1603.63 910.507C1596.82 910.653 1591 908.228 1586.16 903.234C1581.31 898.24 1578.65 892.224 1578.44 885.13C1578.24 878.037 1580.95 872.156 1586.23 867.256C1591.23 862.413 1597.01 860.09 1603.82 859.944C1610.74 860.37 1616.85 862.738 1621.69 867.732Z" fill="black"></path><path d="M1576.83 1040.59C1554.81 1040.45 1533.9 1033.85 1514.56 1020.11C1489.12 1002.51 1473.31 977.97 1467.59 947.29C1461.47 916.094 1466.79 887.115 1483.75 861.496C1500.33 835.361 1524.18 819.092 1554.23 813.198C1584.28 807.305 1612.23 813.416 1637.73 831.3C1662.6 849.01 1678.41 873.551 1684.24 904.803C1690.59 935.657 1685.17 964.064 1668.25 989.969C1651.74 1016.39 1628.23 1032.89 1598.4 1038.44C1590.96 1039.9 1583.98 1040.67 1576.83 1040.59ZM1576.15 840.107C1570.83 840.258 1565.57 840.696 1559.85 841.819C1537.52 846.197 1520.78 857.802 1508.23 877.203C1495.41 896.66 1491.55 917.923 1496.21 941.678C1500.47 964.916 1512.01 982.863 1531.24 996.033C1550.18 1009.26 1570.41 1013.91 1592.74 1009.53C1614.77 1005.21 1631.52 993.606 1643.72 973.976C1643.72 973.976 1643.72 973.976 1643.95 973.633C1656.78 954.177 1660.4 933.256 1655.85 910.073C1655.85 910.073 1655.85 910.073 1655.8 909.787C1651.37 885.69 1639.83 867.743 1620.89 854.517C1606.56 845.14 1591.94 840.28 1576.15 840.107Z" fill="black"></path><path d="M1616.47 963.864C1616.26 958.258 1614.34 952.988 1610.52 948.684C1606.48 944.722 1601.62 942.702 1596.02 942.91C1590.64 942.775 1585.94 944.588 1581.69 948.69C1577.45 952.793 1575.43 957.647 1575.35 963.309C1575.56 968.916 1577.42 973.899 1581.47 977.861C1585.52 981.823 1590.09 983.899 1595.75 983.977C1601.35 983.769 1606.34 981.901 1610.36 978.14C1614.37 974.38 1616.39 969.526 1616.47 963.864ZM1642.22 885.999C1641.91 875.359 1638.06 866.307 1630.88 858.501C1623.47 851.037 1614.45 847.457 1603.81 847.76C1593.68 847.665 1584.86 851.179 1577.4 858.586C1569.65 866.05 1565.84 875.417 1566.14 886.057C1566.45 896.697 1570.3 905.749 1577.71 913.212C1585.12 920.676 1593.91 924.598 1604.27 924.351C1614.96 924.334 1624.01 920.478 1631.82 913.301C1638.6 905.433 1642.52 896.639 1642.22 885.999Z" fill="white"></path><path d="M1602.34 1085.82C1580.31 1090.14 1562.27 1096.65 1547.99 1105.69C1533.71 1114.73 1527.39 1123.4 1529.02 1131.7C1530.64 1140 1539.77 1145.64 1556.41 1148.62C1573.04 1151.6 1592.21 1150.81 1614.24 1146.49C1635.99 1142.22 1654.32 1135.66 1668.6 1126.62C1682.93 1117.86 1689.54 1109.14 1687.86 1100.55C1686.17 1091.96 1677.1 1086.61 1660.18 1083.69C1643.26 1080.76 1624.1 1081.55 1602.34 1085.82Z" fill="#CF80A6"></path><path d="M1789.01 1363.63C1780.66 1363.47 1774.35 1356.98 1774.56 1348.92C1774.88 1317.06 1784.75 1286.91 1803.42 1259.2C1829.46 1220.54 1865.79 1196.53 1911.59 1187.6C1957.11 1178.72 1999.79 1187.34 2038.44 1213.38C2066.15 1232.05 2086.63 1256.29 2099.13 1285.35C2102.35 1292.74 2098.99 1301.42 2091.54 1304.36C2084.15 1307.58 2075.47 1304.22 2072.53 1296.77C2062.24 1272.93 2045.29 1253.05 2022.37 1237.61C1989.59 1215.78 1955.24 1208.8 1916.88 1216.28C1878.52 1223.76 1849.32 1243.12 1827.42 1275.62C1811.98 1298.54 1804.02 1323.26 1803.44 1349.23C1803.52 1357.24 1797.02 1363.55 1789.01 1363.63Z" fill="black"></path></svg><svg viewBox="0 0 3000 3000"><path fill-rule="evenodd" clip-rule="evenodd" d="M2727.8,2633.6L2727.8,2633.6c9.4,11.9,15,27,15,43.3c0,16.4-5.8,31.9-15.4,43.8l-0.8,1l-0.2-1.3  c-0.2-1.1-0.4-2.2-0.7-3.4c-4.8-21.4-20.5-39.8-46.4-54.6c-17.5-10-27.5-22.1-30.1-35.8c-1.7-8.9-0.4-17.8,2-25.4  c2.4-7.6,6.1-14,9.1-17.8l10.1-12.4c1.8-2.2,5.1-2.2,6.8,0L2727.8,2633.6L2727.8,2633.6z M2743.7,2621.2L2743.7,2621.2l-67.4-83.3  c-1.3-1.6-3.7-1.6-5,0l-67.4,83.3v0l-0.2,0.3c-12.4,15.6-19.8,35.3-19.8,56.8c0,50.1,40.3,90.7,90,90.7s90-40.6,90-90.7  c0-21.5-7.4-41.3-19.8-56.8L2743.7,2621.2L2743.7,2621.2z M2619.9,2633.4l6-7.5l0.2,1.4c0.2,1.1,0.3,2.2,0.5,3.3  c3.9,20.7,17.9,37.9,41.2,51.3c20.3,11.6,32.1,25,35.5,39.7c1.4,6.1,1.7,12.2,1.1,17.4l0,0.3l-0.3,0.1c-9.1,4.5-19.4,7.1-30.3,7.1  c-38.1,0-69-31.2-69-69.6C2604.7,2660.4,2610.4,2645.3,2619.9,2633.4L2619.9,2633.4z"></path></svg></svg>