<svg version="1.1" xmlns="http://www.w3.org/2000/svg" xmlns:xlink="http://www.w3.org/1999/xlink" x="0px" y="0px" viewBox="0 0 3000 3000"><ellipse opacity="0.3" cx="1400.4" cy="2615.2" rx="472.8" ry="130.6"></ellipse><g transform="matrix(-2.9166107177734375, 0, 0, 2.9166107177734375, 1880.95,1719.3)"><g transform="matrix(1, 0, 0, 1, 0, 0)"><path fill="#ADC0F4" d="M15.6,43.5c-6,16-10,32.3-12.1,49.1c-0.7,5.4-1.3,10.8-1.9,16.1c22.8-2.2,45.5,0.3,68,7.7
        c1.2-14,3.8-28.1,7.7-42.3c3.9-14.2,12.5-29.8,25.9-46.8L49.7,0C33.7,10.8,22.4,25.3,15.6,43.5z"></path><path fill="#4e4943" d="M74.5,118.4c-1.4-1.4-3.1-2.4-5-3c-22.6-7.4-45.2-9.9-68-7.7c-0.5,6.7-0.9,13.5-1.2,20.5
    C0,130-0.1,131.8,0,133.8c0.3,9.3,3.8,17.1,10.5,23.4c6.8,6.4,14.9,9.4,24.2,9.1c9.3-0.3,17.2-3.8,23.5-10.7
    c3.6-3.7,6.2-8,7.9-12.8c3.6-0.4,6.6-1.9,8.9-4.4c2.6-2.9,3.9-6.4,3.8-10.2C78.9,124.4,77.4,121.1,74.5,118.4z"></path></g><path d="M33.7,172.4c0.4,0,0.8,0,1.3,0c10.6-0.3,19.7-4.4,27-12.3c3.3-3.5,6-7.5,7.9-11.8c3.5-0.9,6.5-2.7,9-5.4c0,0,0,0,0,0
    c3.5-3.9,5.2-8.5,5.1-13.7c0,0,0,0,0,0c-0.2-5.3-2.2-9.7-6-13.3c-1-0.9-2-1.7-3.1-2.4c1.3-12.5,3.7-25.3,7.2-38.1
    c3.7-13.5,12.1-28.7,25-45.1c1.7-2.2,1.3-5.3-0.8-7c-2.2-1.7-5.3-1.3-7,0.8C85.5,41.6,76.5,57.9,72.4,72.7
    c-3.9,14.5-6.5,29-7.8,43.1c0,0.4,0,0.8,0,1.2c0.1,0.7,0.4,1.4,0.8,2c0.4,0.6,0.9,1.1,1.6,1.5c0.3,0.2,0.7,0.4,1.1,0.5
    c1.1,0.4,2.1,1,3,1.9c0,0,0.1,0.1,0.1,0.1c1.9,1.7,2.8,3.7,2.9,6.3c0.1,2.6-0.7,4.8-2.5,6.7c-1.5,1.6-3.4,2.5-5.8,2.8
    c-1.9,0.2-3.5,1.5-4.2,3.3c-1.5,4.1-3.7,7.8-6.8,11c0,0,0,0,0,0c-5.5,5.9-12.1,8.9-20,9.1c-8,0.2-14.8-2.3-20.6-7.8
    c-5.8-5.5-8.7-12-9-19.9c0,0,0-0.1,0-0.1c-0.1-1.6,0-3.2,0.2-4.6c0-0.2,0-0.3,0-0.5c0.4-6.9,0.8-13.7,1.2-20.3
    c0.6-5.3,1.2-10.7,1.9-16c2.1-16.3,6.1-32.4,11.9-48c6.4-17.1,17.2-30.9,32.3-41.1c2.3-1.5,2.9-4.7,1.3-6.9
    c-1.5-2.3-4.7-2.9-6.9-1.3C30.1,7.2,18,22.7,10.9,41.7C4.8,58,0.7,74.8-1.5,91.9c-0.7,5.4-1.3,10.9-1.9,16.2c0,0,0,0.1,0,0.1
    c0,0.1,0,0.1,0,0.2c-0.5,6.6-0.9,13.4-1.2,20.3c-0.3,2-0.4,4.1-0.3,6.3c0.3,10.6,4.4,19.6,12.1,26.9
    C14.6,168.9,23.5,172.4,33.7,172.4z"></path></g><g transform="matrix(-2.9166107177734375, 0, 0, 2.9166107177734375, 1880.95,1719.3)"><g transform="matrix( 1, 0, 0, 1, 0,0) "><path d="M33.7,172.4c0.4,0,0.8,0,1.3,0c10.6-0.3,19.7-4.4,27-12.3c3.3-3.5,6-7.5,7.9-11.8c3.5-0.9,6.5-2.7,9-5.4c0,0,0,0,0,0
    c3.5-3.9,5.2-8.5,5.1-13.7c0,0,0,0,0,0c-0.2-5.3-2.2-9.7-6-13.3c-1-0.9-2-1.7-3.1-2.4c1.3-12.5,3.7-25.3,7.2-38.1
    c3.7-13.5,12.1-28.7,25-45.1c1.7-2.2,1.3-5.3-0.8-7c-2.2-1.7-5.3-1.3-7,0.8C85.5,41.6,76.5,57.9,72.4,72.7
    c-3.9,14.5-6.5,29-7.8,43.1c0,0.4,0,0.8,0,1.2c0.1,0.7,0.4,1.4,0.8,2c0.4,0.6,0.9,1.1,1.6,1.5c0.3,0.2,0.7,0.4,1.1,0.5
    c1.1,0.4,2.1,1,3,1.9c0,0,0.1,0.1,0.1,0.1c1.9,1.7,2.8,3.7,2.9,6.3c0.1,2.6-0.7,4.8-2.5,6.7c-1.5,1.6-3.4,2.5-5.8,2.8
    c-1.9,0.2-3.5,1.5-4.2,3.3c-1.5,4.1-3.7,7.8-6.8,11c0,0,0,0,0,0c-5.5,5.9-12.1,8.9-20,9.1c-8,0.2-14.8-2.3-20.6-7.8
    c-5.8-5.5-8.7-12-9-19.9c0,0,0-0.1,0-0.1c-0.1-1.6,0-3.2,0.2-4.6c0-0.2,0-0.3,0-0.5c0.4-6.9,0.8-13.7,1.2-20.3
    c0.6-5.3,1.2-10.7,1.9-16c2.1-16.3,6.1-32.4,11.9-48c6.4-17.1,17.2-30.9,32.3-41.1c2.3-1.5,2.9-4.7,1.3-6.9
    c-1.5-2.3-4.7-2.9-6.9-1.3C30.1,7.2,18,22.7,10.9,41.7C4.8,58,0.7,74.8-1.5,91.9c-0.7,5.4-1.3,10.9-1.9,16.2c0,0,0,0.1,0,0.1
    c0,0.1,0,0.1,0,0.2c-0.5,6.6-0.9,13.4-1.2,20.3c-0.3,2-0.4,4.1-0.3,6.3c0.3,10.6,4.4,19.6,12.1,26.9
    C14.6,168.9,23.5,172.4,33.7,172.4z"></path></g></g><g transform="matrix(2.9166107177734375, 0, 0, 2.9166107177734375, 1463.45,1961.9)"><g transform="matrix(1, 0, 0, 1, 0, 0)"><path fill="#ADC0F4" d="M6,171.3L6,171.3c23.5,6.5,48.4,6.5,74.9,0c3.3-18,5.3-35.2,6.1-51.5c0.2-5.5,0.3-9,0.3-10.5l-73.1-5
    C14.5,121.4,11.8,143.8,6,171.3z"></path><path fill="#4e4943" d="M6,170.4c-1.5,7.7-3.1,15.6-5,23.7c-0.7,2.6-1,5.3-1,8.1c0,8.8,3.7,16.3,11,22.4c7.3,6.3,16.2,9.4,26.6,9.4
    h43.2c1.8,0,3.5-0.2,5.2-0.4c5.4-0.7,10.3-2.4,14.7-5.1c1.9-1.1,3.7-2.4,5.4-3.9c7.4-6.1,11-13.5,11-22.4
    c0-8.8-3.7-16.4-11-22.6c-5.8-4.8-12.5-7.8-20.1-8.9c-1.6-0.2-3.3-0.4-5.1-0.4C54.5,176.9,29.5,176.9,6,170.4z"></path></g><path d="M80.8,240H37.6C26,240,16,236.4,7.8,229.4c-8.5-7-12.8-15.8-12.8-26.2c0-3.2,0.4-6.3,1.2-9.3c1.8-7.9,3.5-15.6,4.9-23.2
c0-0.1,0-0.3,0.1-0.4c5.6-27.1,8.4-49.3,8.1-65.9c0-2.8,2.2-5,4.9-5.1c0,0,0,0,0.1,0c2.7,0,5,2.2,5,4.9
c0.2,17.3-2.6,40.1-8.3,67.8c0,0.1,0,0.2-0.1,0.3c-1.5,7.7-3.2,15.7-5,23.8c0,0.1,0,0.1,0,0.2c-0.6,2.2-0.9,4.5-0.9,6.8
c0,7.3,3,13.4,9.2,18.5c0,0,0,0,0.1,0.1c6.5,5.5,14.1,8.2,23.3,8.2h43.2c1.6,0,3.1-0.1,4.6-0.4c0,0,0.1,0,0.1,0
c4.7-0.6,8.9-2,12.7-4.4c0,0,0.1-0.1,0.1-0.1c1.6-0.9,3.1-2,4.6-3.3c0.1-0.1,0.1-0.1,0.2-0.1c6.2-5.1,9.2-11.2,9.2-18.5
c0-7.3-3-13.5-9.3-18.8c-5.1-4.3-10.9-6.8-17.6-7.7c-1.4-0.2-2.9-0.3-4.4-0.4c-0.2,0-0.3,0-0.5,0c-0.6-0.1-1.1-0.2-1.6-0.5
c-0.7-0.3-1.3-0.8-1.7-1.4c-0.5-0.6-0.8-1.2-1-2c-0.1-0.5-0.2-1.1-0.1-1.7c0-0.2,0-0.3,0.1-0.5c3.3-17.6,5.3-34.7,6-50.8
c0.2-5.4,0.3-8.9,0.3-10.4c0.1-2.8,2.3-4.9,5.1-4.9c2.8,0.1,5,2.3,4.9,5.1c0,1.6-0.1,5-0.4,10.6c-0.6,14.9-2.4,30.6-5.2,46.8
c8.4,1.2,16,4.6,22.5,9.9c0,0,0,0,0,0c8.5,7.2,12.8,16.1,12.8,26.4c0,10.3-4.3,19.1-12.8,26.1c-1.9,1.7-4,3.2-6.1,4.4
c-5,3.1-10.6,5-16.6,5.8C84.9,239.8,82.9,240,80.8,240C80.9,240,80.9,240,80.8,240z"></path></g><g transform="matrix(2.9166107177734375, 0, 0, 2.9166107177734375, 1463.45,1961.9)"><g transform="matrix( 1, 0, 0, 1, 0,0) "><path d="M80.8,240H37.6C26,240,16,236.4,7.8,229.4c-8.5-7-12.8-15.8-12.8-26.2c0-3.2,0.4-6.3,1.2-9.3c1.8-7.9,3.5-15.6,4.9-23.2
c0-0.1,0-0.3,0.1-0.4c5.6-27.1,8.4-49.3,8.1-65.9c0-2.8,2.2-5,4.9-5.1c0,0,0,0,0.1,0c2.7,0,5,2.2,5,4.9
c0.2,17.3-2.6,40.1-8.3,67.8c0,0.1,0,0.2-0.1,0.3c-1.5,7.7-3.2,15.7-5,23.8c0,0.1,0,0.1,0,0.2c-0.6,2.2-0.9,4.5-0.9,6.8
c0,7.3,3,13.4,9.2,18.5c0,0,0,0,0.1,0.1c6.5,5.5,14.1,8.2,23.3,8.2h43.2c1.6,0,3.1-0.1,4.6-0.4c0,0,0.1,0,0.1,0
c4.7-0.6,8.9-2,12.7-4.4c0,0,0.1-0.1,0.1-0.1c1.6-0.9,3.1-2,4.6-3.3c0.1-0.1,0.1-0.1,0.2-0.1c6.2-5.1,9.2-11.2,9.2-18.5
c0-7.3-3-13.5-9.3-18.8c-5.1-4.3-10.9-6.8-17.6-7.7c-1.4-0.2-2.9-0.3-4.4-0.4c-0.2,0-0.3,0-0.5,0c-0.6-0.1-1.1-0.2-1.6-0.5
c-0.7-0.3-1.3-0.8-1.7-1.4c-0.5-0.6-0.8-1.2-1-2c-0.1-0.5-0.2-1.1-0.1-1.7c0-0.2,0-0.3,0.1-0.5c3.3-17.6,5.3-34.7,6-50.8
c0.2-5.4,0.3-8.9,0.3-10.4c0.1-2.8,2.3-4.9,5.1-4.9c2.8,0.1,5,2.3,4.9,5.1c0,1.6-0.1,5-0.4,10.6c-0.6,14.9-2.4,30.6-5.2,46.8
c8.4,1.2,16,4.6,22.5,9.9c0,0,0,0,0,0c8.5,7.2,12.8,16.1,12.8,26.4c0,10.3-4.3,19.1-12.8,26.1c-1.9,1.7-4,3.2-6.1,4.4
c-5,3.1-10.6,5-16.6,5.8C84.9,239.8,82.9,240,80.8,240C80.9,240,80.9,240,80.8,240z"></path></g></g><g transform="matrix(2.9166107177734375, 0, 0, 2.9166107177734375, 956.5,1516.1)"><g transform="matrix(1, 0, 0, 1, 0, 0)"><g><path fill="#ADC0F4" d="M293.3,186.1c-0.8-22.8-2.9-46.2-6.4-70.2c-5.8-25.7-16.5-47.5-32.3-65.5C241.5,35.6,225,23.3,205,13.8
					c-15-7.2-31.1-11.7-48.1-13.4h-0.1c-0.2,0-0.4-0.1-0.7-0.1c-0.7,0-1.5-0.1-2.2-0.1l-2.6,0c-0.2,0-0.4,0-0.6,0h-1.4
					c-0.3,0-0.7,0-1,0H145c-0.3,0-0.7,0-1.1,0c0,0-0.1,0-0.1,0h-1.2c-0.4,0-0.8,0-1.1,0c-1.1,0-2.1,0.1-3.2,0.1
					c-0.4,0-0.8,0.1-1.2,0.1c-17.2,1.7-33.5,6.2-48.8,13.5C44.2,34.9,16.9,69,6.4,115.9c-3.5,24-5.6,47.3-6.4,70.2
					c-1.3,69,43.7,104.5,134.8,106.6c0.5,0,1.1,0,1.6,0l5.4,0.1c0.3,0,0.7,0,1.1,0h0.9c0.1,0,0.1,0,0.1,0h1.1c0.3,0,0.5,0,0.8,0h2.9
					c0.2,0,0.4,0,0.5,0c0,0,0.1,0,0.2,0c0.6,0,1.3,0,1.9,0l5.4-0.1c0.5,0,1.1,0,1.6,0C249.6,290.6,294.5,255.1,293.3,186.1z"></path></g></g><g><path d="M151.4,297.8h-9.5c0,0-0.1,0-0.1,0l-5.4-0.1h-1.6c0,0-0.1,0-0.1,0c-23.1-0.5-43.6-3.2-60.9-8
				c-17.6-4.9-32.4-12-44.1-21.3C6,249.7-5.6,222-4.9,186c0,0,0-0.1,0-0.1c0.8-22.9,2.9-46.7,6.4-70.7c0-0.1,0-0.2,0.1-0.4
				C7,90.7,16.8,69.6,30.9,52C45,34.5,63.6,20.1,86.2,9.2c15.7-7.6,32.7-12.3,50.4-14c0,0,0.1,0,0.1,0c0.4,0,0.8-0.1,1.1-0.1
				c0.1,0,0.2,0,0.3,0l3-0.1c0.4,0,0.9-0.1,1.4-0.1h8.2c0.3,0,0.7,0,1,0.1l2.4,0.1c0.1,0,0.1,0,0.2,0c0.3,0,0.6,0,1,0
				c0.5,0,1,0.1,1.5,0.1c0,0,0,0,0,0c0.2,0,0.5,0.1,0.7,0.1c17.5,1.8,34.2,6.4,49.7,13.9c20.5,9.8,37.7,22.6,51.1,37.9
				c16.3,18.5,27.6,41.3,33.5,67.7c0,0.1,0.1,0.2,0.1,0.4c3.5,24,5.7,47.8,6.4,70.7c0,0,0,0.1,0,0.1c0.6,36-11,63.7-34.7,82.4
				c-11.7,9.3-26.6,16.4-44.1,21.3c-17.3,4.8-37.8,7.5-60.9,8c0,0-0.1,0-0.1,0h-1.6L151.4,297.8
				C151.5,297.8,151.5,297.8,151.4,297.8z M141.9,287.8h9.5l5.4-0.1c0,0,0.1,0,0.1,0h1.5c44.2-1,77.5-10.2,99-27.1
				c10.5-8.3,18.4-18.7,23.5-30.9c5.2-12.3,7.6-27,7.3-43.4c-0.8-22.4-2.9-45.8-6.3-69.4c-5.6-24.7-16.1-45.9-31.2-63.1
				c-12.6-14.3-28.7-26.2-48-35.5c-14.4-6.9-30-11.3-46.3-12.9c-0.1,0-0.3,0-0.4,0c-0.1,0-0.3,0-0.4-0.1c-0.7,0-1.3-0.1-2-0.1
				L151.2,5c-0.2,0-0.4,0-0.6,0h-8c-0.2,0-0.4,0-0.6,0c-0.1,0-0.2,0-0.3,0l-3.1,0.1c-0.3,0-0.7,0.1-1.1,0.1c-16.5,1.6-32.4,6-47,13
				c-21.3,10.2-38.7,23.7-51.8,40c-13.1,16.3-22.3,36-27.3,58.6c-3.4,23.6-5.6,46.9-6.3,69.4c-0.3,16.4,2.2,31.1,7.3,43.4
				c5.1,12.2,13,22.6,23.5,30.9c21.5,17,54.8,26.1,99,27.1h1.5c0,0,0.1,0,0.1,0L141.9,287.8z"></path></g></g><g transform="matrix(2.9166107177734375, 0, 0, 2.9166107177734375, 956.5,1516.1)"><g transform="matrix(1, 0, 0, 1, 0, 0)"><g fill="#D3CCB9"><path d="M290.5,215.9c-0.2,0-0.4,0-0.6,0c-6.3,0.4-11.5,2.7-15.8,6.7s-6.4,8.4-6.3,13.4v0.1c0.2,4.8,2.5,8.6,7,11.4 c0.1,0.1,0.3,0.2,0.5,0.2c0.3,0.2,0.6,0.4,1,0.6c2.9-4,5.4-8.2,7.5-12.6C286.7,229.5,288.9,223,290.5,215.9 M125,236L125,236 c0.8-5-0.7-9.4-4.5-13.4c-3.7-4-8.7-6.3-14.9-6.7c-6.4,0.1-12.8,0.1-19.1-0.1c-9.4-0.2-18.7-0.7-27.9-1.5 c-0.9-0.1-1.8-0.2-2.8-0.2h-0.1c-18.4-1.6-36.7-4.4-54.8-8.2c1.1,8.2,3,15.9,5.6,22.9c0.4,1,0.8,2,1.2,3 c0.5,1.3,1.1,2.5,1.7,3.7c1.1,2.2,2.2,4.3,3.4,6.4c14.3,2.5,28.7,4.4,43.1,5.9c1.9,0.2,3.9,0.4,5.8,0.6c0.4,0,0.7,0.1,1.1,0.1 c12.2,1.1,24.5,1.8,36.8,2.2c6,0.6,11.4-0.4,16.2-3.1c0.2-0.1,0.3-0.2,0.4-0.2C121.4,244.6,124.2,240.8,125,236 M2.1,152.1 c-0.4,5.1-0.8,10.2-1.1,15.2c-0.3,3.9-0.5,7.8-0.6,11.6c0,0.4,0,0.7,0,1.1c18.7,4,37.5,7.1,56.4,9.4c2,0.3,4.1,0.5,6.1,0.7 c2.2,0.3,4.4,0.5,6.6,0.7c14.5,1.5,29.1,2.4,43.8,2.9c6.2,0.6,11.7-0.5,16.5-3.3c4.9-2.8,7.8-6.6,8.6-11.4 c0.8-4.9-0.6-9.4-4.4-13.4c-3.7-4-8.7-6.2-14.9-6.7c-15.8,0.3-31.5-0.2-47-1.5c-4.1-0.3-8.1-0.7-12.1-1.2 c-11-1.2-21.9-2.8-32.8-4.8c-8.1-1.5-16.3-3.2-24.3-5.1C2.5,148.2,2.3,150.2,2.1,152.1 M15.1,88.5c-1.3,3-2.4,6.1-3.5,9.2 c-0.6,1.9-1.3,3.9-1.9,5.8c-0.6,2-1.2,4-1.7,6c-0.5,1.8-1,3.7-1.4,5.6c0,0.3-0.1,0.5-0.2,0.8c-0.2,1.6-0.5,3.2-0.7,4.8 c19.5,4.4,39.1,7.9,58.9,10.4c3.5,0.4,7,0.9,10.5,1.2c16.8,1.9,33.7,3.1,50.8,3.7c6.2,0.6,11.7-0.5,16.6-3.3 c4.9-2.8,7.8-6.6,8.6-11.4v-0.1c0.8-4.9-0.6-9.3-4.4-13.3c-3.7-4-8.7-6.2-14.9-6.7c-15.2,0.2-30.2-0.2-45.1-1.4 c-2.6-0.2-5.2-0.4-7.8-0.7C57.4,97.1,36.1,93.6,15.1,88.5 M262.2,178.9c0.2,4.8,2.5,8.6,7,11.4c4.5,2.8,9.9,3.9,16.1,3.3 c2.6-0.1,5.2-0.2,7.9-0.3c0.1-2.4,0.1-4.8,0-7.3c0-0.4,0-0.8,0-1.2c-0.3-8.5-0.8-17.2-1.5-25.9c-2.5,0-5,0-7.5-0.1 c-6.3,0.4-11.5,2.7-15.8,6.7C264.2,169.5,262.1,174,262.2,178.9 M289.4,135.7c-0.7-6.5-1.6-13.1-2.6-19.7 c-0.5-2.1-1-4.3-1.5-6.3c-0.7-2.8-1.6-5.6-2.5-8.3c-1.2,0-2.4,0-3.6-0.1c-6.2,0.4-11.5,2.6-15.8,6.7c-4.3,4-6.4,8.4-6.2,13.3 v0.1c0.1,4.8,2.5,8.6,7.1,11.4c4.5,2.8,9.8,3.9,16.1,3.3C283.5,136,286.5,135.8,289.4,135.7 M236.7,137.6 c-7.4-8.2-16.1-13.1-26-14.5c-2.1-0.3-4.3-0.5-6.6-0.5c-0.5,0-1,0-1.4,0c-12,0.4-22.4,5.4-31.1,15c-3.6,4.1-6.5,8.5-8.7,13.2 c-3.2,6.9-4.8,14.5-4.8,22.8c0,14.1,4.5,26.1,13.5,36c8,8.8,17.3,13.7,28.1,14.8c1,0.1,2,0.1,2.9,0.2c0.5,0,1,0.1,1.4,0.1 c2.2,0,4.4-0.2,6.5-0.5c10-1.4,18.7-6.3,26-14.5c9-9.9,13.6-21.9,13.6-36C250.2,159.6,245.7,147.6,236.7,137.6z"></path></g><path d="M151.4,297.8h-9.5c0,0-0.1,0-0.1,0l-5.4-0.1h-1.6c0,0-0.1,0-0.1,0c-2.8-0.1-5.6-0.2-8.3-0.3c-29.2-1.4-53.8-6.4-73.2-15 c-19.8-8.8-34.8-21.5-44.5-37.7C-0.7,228.7-5.4,209-4.9,186c0,0,0-0.1,0-0.1c0.8-22.9,2.9-46.7,6.4-70.7c0-0.1,0-0.2,0.1-0.4 C7,90.7,16.8,69.6,30.9,52C45,34.5,63.6,20.1,86.2,9.2c3.6-1.7,7.3-3.3,11-4.7c12.5-4.8,25.7-7.9,39.4-9.2c0,0,0.1,0,0.1,0l0.3,0 c0.3,0,0.5,0,0.8-0.1c0.1,0,0.2,0,0.3,0l3-0.1c0.4,0,0.9-0.1,1.4-0.1h8.2c0.3,0,0.7,0,1,0.1l2.4,0.1c0.1,0,0.1,0,0.2,0 c0.3,0,0.6,0,1,0c0.5,0,1,0.1,1.5,0.1c0,0,0,0,0,0c0.2,0,0.4,0.1,0.7,0.1c17.5,1.8,34.2,6.4,49.7,13.9c1.4,0.7,2.8,1.4,4.2,2.1 c21.4,10.9,39,25.2,52.4,42.4c13.4,17.2,22.8,37.8,28,61.1c0,0.1,0.1,0.2,0.1,0.4c3.5,24,5.7,47.8,6.4,70.7c0,0,0,0.1,0,0.1 c0.4,23-4.2,42.7-13.8,58.7c-11.4,19.2-30.1,33.3-55.6,42c-6.2,2.1-13,4-20,5.5c-0.9,0.2-1.8,0.4-2.6,0.5c-0.1,0-0.1,0-0.2,0 l-19.2,3c-0.1,0-0.3,0-0.4,0l-20.3,1.6c-0.1,0-0.2,0-0.2,0c-2.4,0.1-4.8,0.1-7.2,0.2c0,0-0.1,0-0.1,0h-1.6L151.4,297.8 C151.5,297.8,151.5,297.8,151.4,297.8z M141.9,287.8h9.5l5.4-0.1c0,0,0.1,0,0.1,0h1.5c2.3-0.1,4.7-0.1,7-0.2l20-1.6l19-3 c0.8-0.2,1.6-0.3,2.4-0.5c6.6-1.4,13-3.2,18.8-5.2c23.2-7.9,40.1-20.6,50.3-37.7c8.6-14.4,12.7-32.3,12.4-53.4 c-0.8-22.4-2.9-45.8-6.3-69.4c-4.9-21.8-13.7-41-26.1-57c-12.5-16-29-29.4-49-39.6c-1.3-0.7-2.6-1.3-4-2 c-14.4-6.9-30-11.3-46.3-12.9c-0.1,0-0.3,0-0.4,0c-0.1,0-0.3,0-0.4-0.1c-0.7,0-1.3-0.1-2-0.1L151.2,5c-0.2,0-0.4,0-0.6,0h-8 c-0.2,0-0.4,0-0.6,0c-0.1,0-0.2,0-0.3,0l-3.1,0.1c-0.2,0-0.5,0-0.8,0.1l-0.3,0c-12.8,1.2-25.1,4.1-36.8,8.6 c-3.5,1.3-6.9,2.8-10.3,4.4c-21.3,10.2-38.7,23.7-51.8,40c-13.1,16.3-22.3,36-27.3,58.6c-3.4,23.6-5.6,46.9-6.3,69.4 c-0.4,21.1,3.8,39,12.3,53.4c8.6,14.4,22.1,25.8,39.9,33.7c18.3,8.1,41.7,12.9,69.6,14.2c2.6,0.1,5.3,0.2,8,0.3h1.5 c0,0,0.1,0,0.1,0L141.9,287.8z"></path></g></g><g transform="matrix(2.9166107177734375, 0, 0, 2.9166107177734375, 1042.6,1961.9)"><g transform="matrix(1, 0, 0, 1, 0, 0)"><path fill="#ADC0F4" d="M6,171.3L6,171.3c23.5,6.5,48.4,6.5,74.9,0c3.3-18,5.3-35.2,6.1-51.5c0.2-5.5,0.3-9,0.3-10.5l-73.1-5
					C14.5,121.4,11.8,143.8,6,171.3z"></path><path fill="#4e4943" d="M6,170.4c-1.5,7.7-3.1,15.6-5,23.7c-0.7,2.6-1,5.3-1,8.1c0,8.8,3.7,16.3,11,22.4c7.3,6.3,16.2,9.4,26.6,9.4
    h43.2c1.8,0,3.5-0.2,5.2-0.4c5.4-0.7,10.3-2.4,14.7-5.1c1.9-1.1,3.7-2.4,5.4-3.9c7.4-6.1,11-13.5,11-22.4
    c0-8.8-3.7-16.4-11-22.6c-5.8-4.8-12.5-7.8-20.1-8.9c-1.6-0.2-3.3-0.4-5.1-0.4C54.5,176.9,29.5,176.9,6,170.4z"></path><path d="M80.8,240H37.6C26,240,16,236.4,7.8,229.4c-8.5-7-12.8-15.8-12.8-26.2c0-3.2,0.4-6.3,1.2-9.3c1.8-7.8,3.5-15.6,4.9-23.2
				c0-0.1,0-0.3,0.1-0.4c5.6-27.1,8.4-49.3,8.1-65.9c0-2.8,2.2-5,4.9-5.1c2.8,0,5,2.2,5.1,4.9c0.2,17.3-2.6,40.1-8.3,67.8
				c0,0.1,0,0.2-0.1,0.3c-1.5,7.7-3.2,15.7-5,23.8c0,0.1,0,0.1,0,0.2c-0.6,2.2-0.9,4.5-0.9,6.8c0,7.3,3,13.4,9.2,18.5
				c0,0,0,0,0.1,0.1c6.5,5.5,14.1,8.2,23.3,8.2h43.2c1.6,0,3.1-0.1,4.6-0.4c0,0,0.1,0,0.1,0c4.7-0.6,8.9-2,12.7-4.4
				c0,0,0.1-0.1,0.1-0.1c1.6-0.9,3.1-2,4.6-3.3c0.1-0.1,0.1-0.1,0.2-0.1c6.2-5.1,9.2-11.2,9.2-18.5c0-7.4-3-13.5-9.3-18.8
				c-5.1-4.3-10.9-6.8-17.6-7.7c-1.4-0.2-2.9-0.3-4.4-0.4c-0.2,0-0.3,0-0.5,0c-0.6-0.1-1.1-0.2-1.6-0.5c-0.7-0.3-1.3-0.8-1.7-1.4
				c-0.5-0.6-0.8-1.2-1-2c-0.1-0.5-0.2-1.1-0.1-1.7c0-0.2,0-0.3,0.1-0.5c3.3-17.6,5.3-34.7,6-50.8c0.2-5.4,0.3-8.9,0.3-10.4
				c0.1-2.7,2.3-4.9,5-4.9c0,0,0.1,0,0.1,0c2.8,0.1,5,2.3,4.9,5.1c0,1.6-0.1,5-0.4,10.6c-0.6,14.9-2.4,30.6-5.2,46.8
				c8.4,1.2,16,4.6,22.5,9.9c0,0,0,0,0,0c8.5,7.2,12.8,16.1,12.8,26.4c0,10.3-4.3,19.1-12.8,26.1c-1.9,1.7-4,3.2-6.1,4.4
				c-5,3.1-10.6,5-16.6,5.8C84.9,239.8,82.9,240,80.8,240C80.9,240,80.9,240,80.8,240z"></path></g></g><g transform="matrix(2.9166107177734375, 0, 0, 2.9166107177734375, 1042.6,1961.9)"><g transform="matrix( 1, 0, 0, 1, 0,0) "><path d="M80.8,240H37.6C26,240,16,236.4,7.8,229.4c-8.5-7-12.8-15.8-12.8-26.2c0-3.2,0.4-6.3,1.2-9.3c1.8-7.8,3.5-15.6,4.9-23.2
				c0-0.1,0-0.3,0.1-0.4c5.6-27.1,8.4-49.3,8.1-65.9c0-2.8,2.2-5,4.9-5.1c2.8,0,5,2.2,5.1,4.9c0.2,17.3-2.6,40.1-8.3,67.8
				c0,0.1,0,0.2-0.1,0.3c-1.5,7.7-3.2,15.7-5,23.8c0,0.1,0,0.1,0,0.2c-0.6,2.2-0.9,4.5-0.9,6.8c0,7.3,3,13.4,9.2,18.5
				c0,0,0,0,0.1,0.1c6.5,5.5,14.1,8.2,23.3,8.2h43.2c1.6,0,3.1-0.1,4.6-0.4c0,0,0.1,0,0.1,0c4.7-0.6,8.9-2,12.7-4.4
				c0,0,0.1-0.1,0.1-0.1c1.6-0.9,3.1-2,4.6-3.3c0.1-0.1,0.1-0.1,0.2-0.1c6.2-5.1,9.2-11.2,9.2-18.5c0-7.4-3-13.5-9.3-18.8
				c-5.1-4.3-10.9-6.8-17.6-7.7c-1.4-0.2-2.9-0.3-4.4-0.4c-0.2,0-0.3,0-0.5,0c-0.6-0.1-1.1-0.2-1.6-0.5c-0.7-0.3-1.3-0.8-1.7-1.4
				c-0.5-0.6-0.8-1.2-1-2c-0.1-0.5-0.2-1.1-0.1-1.7c0-0.2,0-0.3,0.1-0.5c3.3-17.6,5.3-34.7,6-50.8c0.2-5.4,0.3-8.9,0.3-10.4
				c0.1-2.7,2.3-4.9,5-4.9c0,0,0.1,0,0.1,0c2.8,0.1,5,2.3,4.9,5.1c0,1.6-0.1,5-0.4,10.6c-0.6,14.9-2.4,30.6-5.2,46.8
				c8.4,1.2,16,4.6,22.5,9.9c0,0,0,0,0,0c8.5,7.2,12.8,16.1,12.8,26.4c0,10.3-4.3,19.1-12.8,26.1c-1.9,1.7-4,3.2-6.1,4.4
				c-5,3.1-10.6,5-16.6,5.8C84.9,239.8,82.9,240,80.8,240C80.9,240,80.9,240,80.8,240z"></path></g></g><g transform="matrix(2.9166107177734375, 0, 0, 2.9166107177734375, 1002.9,1719.3)"><g transform="matrix(1, 0, 0, 1, 0, 0)"><path fill="#ADC0F4" d="M15.6,43.5c-6,16-10,32.3-12.1,49.1c-0.7,5.4-1.3,10.8-1.9,16.1c22.8-2.2,45.5,0.3,68,7.7
        c1.2-14,3.8-28.1,7.7-42.3c3.9-14.2,12.5-29.8,25.9-46.8L49.7,0C33.7,10.8,22.4,25.3,15.6,43.5z"></path><path fill="#4e4943" d="M74.5,118.4c-1.4-1.4-3.1-2.4-5-3c-22.6-7.4-45.2-9.9-68-7.7c-0.5,6.7-0.9,13.5-1.2,20.5
    C0,130,0,131.8,0.1,133.8c0.3,9.3,3.8,17.1,10.5,23.4c6.8,6.4,14.9,9.4,24.2,9.1c9.3-0.3,17.2-3.8,23.5-10.7
    c3.6-3.7,6.2-8,7.9-12.8c3.6-0.4,6.6-1.9,8.9-4.4c2.6-2.9,3.9-6.4,3.8-10.2C78.9,124.4,77.4,121.1,74.5,118.4z"></path><path d="M33.7,172.4c-10.1,0-19-3.5-26.5-10.5c-7.7-7.3-11.8-16.3-12.1-26.9c-0.1-2.2,0-4.3,0.3-6.3c0.4-6.9,0.8-13.7,1.2-20.3
    c0,0,0-0.1,0-0.1c0,0,0,0,0,0v0c0,0,0-0.1,0-0.1c0.6-5.4,1.2-10.8,1.9-16.2c2.2-17.1,6.4-34,12.4-50.2c7.1-19,19.2-34.5,36-45.8
    c2.3-1.5,5.4-0.9,6.9,1.3c1.5,2.3,0.9,5.4-1.3,6.9c-15,10.2-25.9,24-32.3,41.1c-5.8,15.5-9.8,31.7-11.9,48
    c-0.7,5.3-1.3,10.7-1.9,16c-0.5,6.6-0.9,13.4-1.2,20.3c0,0.2,0,0.3,0,0.5c-0.2,1.4-0.3,3-0.2,4.6c0,0,0,0.1,0,0.1
    c0.2,8,3.2,14.5,9,20c5.8,5.5,12.6,8,20.6,7.8c8-0.2,14.5-3.2,20-9.1c0,0,0,0,0,0c3.1-3.2,5.4-6.9,6.8-11
    c0.6-1.8,2.3-3.1,4.2-3.3c2.4-0.3,4.3-1.2,5.8-2.8c1.8-2,2.6-4.1,2.5-6.7c-0.1-2.6-1-4.6-2.9-6.3c0,0-0.1-0.1-0.1-0.1
    c-0.9-0.9-1.9-1.5-3-1.9c-0.4-0.1-0.7-0.3-1.1-0.5c-0.6-0.4-1.2-0.9-1.6-1.5c-0.4-0.6-0.7-1.3-0.8-2.1c-0.1-0.4-0.1-0.8,0-1.2
    c1.3-14.2,3.9-28.7,7.8-43.1c4-14.8,13-31.2,26.8-48.6c1.7-2.2,4.9-2.5,7-0.8c2.2,1.7,2.5,4.9,0.8,7
    c-12.9,16.4-21.3,31.6-25,45.1c-3.5,12.7-5.9,25.5-7.2,38.1c1.1,0.7,2.1,1.5,3.1,2.4c3.8,3.6,5.8,8,6,13.3c0,0,0,0,0,0
    c0.1,5.2-1.6,9.8-5.1,13.7c0,0,0,0,0,0c-2.5,2.7-5.5,4.5-9,5.4c-1.9,4.3-4.6,8.3-7.9,11.8c-7.3,7.8-16.4,12-27,12.3
    C34.5,172.4,34.1,172.4,33.7,172.4z"></path></g></g><g transform="matrix(2.9166107177734375, 0, 0, 2.9166107177734375, 1002.9,1719.3)"><g transform="matrix( 1, 0, 0, 1, 0,0) "><path d="M33.7,172.4c-10.1,0-19-3.5-26.5-10.5c-7.7-7.3-11.8-16.3-12.1-26.9c-0.1-2.2,0-4.3,0.3-6.3c0.4-6.9,0.8-13.7,1.2-20.3
    c0,0,0-0.1,0-0.1c0,0,0,0,0,0v0c0,0,0-0.1,0-0.1c0.6-5.4,1.2-10.8,1.9-16.2c2.2-17.1,6.4-34,12.4-50.2c7.1-19,19.2-34.5,36-45.8
    c2.3-1.5,5.4-0.9,6.9,1.3c1.5,2.3,0.9,5.4-1.3,6.9c-15,10.2-25.9,24-32.3,41.1c-5.8,15.5-9.8,31.7-11.9,48
    c-0.7,5.3-1.3,10.7-1.9,16c-0.5,6.6-0.9,13.4-1.2,20.3c0,0.2,0,0.3,0,0.5c-0.2,1.4-0.3,3-0.2,4.6c0,0,0,0.1,0,0.1
    c0.2,8,3.2,14.5,9,20c5.8,5.5,12.6,8,20.6,7.8c8-0.2,14.5-3.2,20-9.1c0,0,0,0,0,0c3.1-3.2,5.4-6.9,6.8-11
    c0.6-1.8,2.3-3.1,4.2-3.3c2.4-0.3,4.3-1.2,5.8-2.8c1.8-2,2.6-4.1,2.5-6.7c-0.1-2.6-1-4.6-2.9-6.3c0,0-0.1-0.1-0.1-0.1
    c-0.9-0.9-1.9-1.5-3-1.9c-0.4-0.1-0.7-0.3-1.1-0.5c-0.6-0.4-1.2-0.9-1.6-1.5c-0.4-0.6-0.7-1.3-0.8-2.1c-0.1-0.4-0.1-0.8,0-1.2
    c1.3-14.2,3.9-28.7,7.8-43.1c4-14.8,13-31.2,26.8-48.6c1.7-2.2,4.9-2.5,7-0.8c2.2,1.7,2.5,4.9,0.8,7
    c-12.9,16.4-21.3,31.6-25,45.1c-3.5,12.7-5.9,25.5-7.2,38.1c1.1,0.7,2.1,1.5,3.1,2.4c3.8,3.6,5.8,8,6,13.3c0,0,0,0,0,0
    c0.1,5.2-1.6,9.8-5.1,13.7c0,0,0,0,0,0c-2.5,2.7-5.5,4.5-9,5.4c-1.9,4.3-4.6,8.3-7.9,11.8c-7.3,7.8-16.4,12-27,12.3
    C34.5,172.4,34.1,172.4,33.7,172.4z"></path></g></g><g transform="matrix(2.9166107177734375, 0, 0, 2.9166107177734375, 1097.75,348.85)"><g transform="matrix(-0.799560546875, 0.60052490234375, 0.60052490234375, 0.799560546875, 80.75,8.45)"><g transform="matrix(1, 0, 0, 1, 0, 0)"><g><path fill="#ADC0F4" d="M26.7-12.4c-5.7-0.2-10.6,1.1-14.9,3.9C-2.2,1.1-12.2,14.9-18.2,32.9c-1.5,4.5-1.5,9.3-0.1,14.4
                                            c1.4,5,4.2,9.6,8.2,13.8C6,78.4,24.5,93,45.2,105c2.8,1.6,5.6,2.7,8.3,3.4l51.6-66.1c-1.8-3-4-5.9-6.8-8.6
                                            c-16.3-15.3-34.6-29-55-41.1C38-10.5,32.5-12.2,26.7-12.4 M66,35.9c4,3.1,6.2,7.2,6.8,12.2c0.6,5-0.7,9.4-3.8,13.3l-6.3,7.8
                                            c-3.1,4-7.1,6.2-12.1,6.8c-5,0.6-9.5-0.7-13.4-3.8L15.5,55.2C11.6,52.1,9.4,48,8.8,43c-0.6-5,0.7-9.4,3.8-13.4l6.2-7.8
                                            c3.1-3.9,7.2-6.2,12.1-6.8c5-0.6,9.5,0.7,13.4,3.8L66,35.9z"></path><path fill="#D3CCB9" d="M72.8,48.1c-0.6-5-2.8-9.1-6.8-12.2L44.3,18.8c-3.9-3.1-8.4-4.4-13.4-3.8c-5,0.6-9,2.9-12.1,6.8l-6.2,7.8
                                            C9.4,33.6,8.2,38,8.8,43c0.6,5,2.8,9.1,6.7,12.2l21.6,17.1c4,3.1,8.5,4.4,13.4,3.8c5-0.6,9-2.9,12.1-6.8l6.3-7.8
                                            C72.1,57.5,73.4,53.1,72.8,48.1z"></path></g><g><path d="M56.6,112.4c0.9-0.7,1.6-1.7,1.9-2.8c0.6-2.7-1-5.4-3.7-6c-2.3-0.6-4.7-1.5-7-2.9C27.5,89,9.3,74.6-6.4,57.8
                                        c0,0,0,0,0,0c-3.4-3.6-5.8-7.5-7-11.7c-1.1-4.2-1.1-8,0-11.5c5.6-16.8,15.1-29.9,28-38.9c3.4-2.2,7.4-3.2,12-3.1
                                        c4.9,0.2,9.7,1.7,14.3,4.4C60.8,8.8,79,22.4,94.9,37.4c2.4,2.4,4.5,4.9,6,7.5c1.4,2.4,4.5,3.2,6.8,1.8c2.4-1.4,3.2-4.5,1.8-6.8
                                        c-2-3.4-4.6-6.7-7.7-9.7c0,0,0,0,0,0C85.3,14.7,66.5,0.6,45.9-11.7c0,0,0,0,0,0c-6-3.5-12.4-5.4-18.9-5.7c0,0-0.1,0-0.1,0
                                        C20.2-17.6,14.2-16,9-12.7c0,0-0.1,0-0.1,0.1c-14.8,10.2-25.5,25-31.9,44c-1.8,5.4-1.8,11.2-0.2,17.3c0,0,0,0,0,0.1
                                        c1.7,5.8,4.8,11.1,9.4,15.9c16.4,17.5,35.4,32.6,56.4,44.7c3.2,1.8,6.5,3.2,9.7,3.9C53.9,113.7,55.4,113.3,56.6,112.4z
                                         M62.3,76.8c1.6-1.2,3.1-2.7,4.4-4.4l6.2-7.8c3.9-5,5.6-10.7,4.8-17.1C77,41.2,74.1,36,69.1,32L47.4,14.9
                                        c-5-3.9-10.7-5.6-17.1-4.8c0,0,0,0,0,0c-6.3,0.8-11.5,3.7-15.5,8.6l-6.2,7.8c0,0,0,0,0,0c-3.9,5-5.5,10.8-4.8,17.1
                                        c0.7,6.4,3.6,11.6,8.6,15.5l21.6,17.1c5,4,10.8,5.6,17.1,4.9C55.4,80.6,59.1,79.2,62.3,76.8z M31.5,20c3.7-0.4,6.9,0.5,9.8,2.8
                                        l21.6,17.1c2.9,2.3,4.5,5.2,4.9,8.8c0.4,3.7-0.4,6.8-2.7,9.7l-6.2,7.8c0,0,0,0,0,0c-2.3,2.9-5.1,4.5-8.8,5
                                        c-3.6,0.4-6.8-0.5-9.8-2.8L18.6,51.3c-2.9-2.3-4.5-5.2-4.9-8.8c0,0,0,0,0,0c-0.4-3.6,0.4-6.8,2.7-9.7l6.2-7.8
                                        C25,22,27.8,20.4,31.5,20z"></path></g></g></g></g><g transform="matrix(2.9166107177734375, 0, 0, 2.9166107177734375, 848.15,585.65)"><g transform="matrix(1, 0, 0, 1, 0, 0)"><path fill="#ADC0F4" d="M540.4,89c-9.1-15.7-20-29.5-32.9-41.5c-13-12-27.1-21.6-42.5-28.7c-15.8-7.2-32.1-11.5-48.9-12.7
					c-48.7-3.8-97.8-5.9-147.3-6.1c-1.7,0-3.4,0-5.1,0c-40.5-0.1-81.2,1-122.3,3.3C118.4,4.5,97,11,77.3,22.8
					c-7.8,4.7-15.1,10-21.8,16c-9.7,8.6-18.3,18.5-25.9,29.8C16.6,87.8,7.9,109.3,3.4,132.9c-4.7,24.6-4.5,49.6,0.6,75
					c2,9.6,4,19.1,6.1,28.5c35.3,126.3,131.4,171.1,288.1,134.4l32.9-8.6c2.5-0.7,4.9-1.3,7.4-2c19.9-5.4,39.7-11.2,59.6-17.2
					c120.1-34.7,175.9-94.1,167.6-178.3c-1.6-7.9-3.3-15.9-5.2-23.9C556.4,122.3,549.7,105.1,540.4,89z"></path></g></g><g transform="matrix(2.9166107177734375, 0, 0, 2.9166107177734375, 848.15,585.65)"><g transform="matrix(1, 0, 0, 1, 0, 0)"><g fill="#D3CCB9"><path d="M58.4,328c0.1,0.1,0.1,0.2,0.2,0.2c3.5,3.7,7.1,7.3,10.8,10.6l8.4,7c0.2,0.2,0.4,0.4,0.7,0.5 c0.1,0.1,0.1,0.1,0.2,0.1l0.1,0.1c0.1,0,0.1,0.1,0.2,0.1l0.2,0.1c0.2,0.1,0.3,0.2,0.4,0.3c1.5,1.1,3,2.2,4.5,3.3 c4.4,3.1,8.9,5.9,13.6,8.5c0.9-0.1,1.9-0.1,2.8-0.2c1.5-0.1,3-0.3,4.6-0.4c6.3-0.2,11.5-2,15.5-5.3c4.2-3.4,6-7.5,5.5-12.2 c-0.5-5-3.1-9.1-8-12.5c-4.7-3.4-10.2-4.9-16.5-4.6c-9.2,1.4-18.4,2.5-27.7,3.3C68.8,327.4,63.6,327.8,58.4,328 M84.3,282.8 L84.3,282.8c-0.5-4.9-3.1-9-7.9-12.5s-10.3-5-16.5-4.5c-12.6,1.9-25.3,3.2-38,4h-0.1c0.1,0.3,0.2,0.5,0.4,0.8l1.3,3 c0.1,0.1,0.1,0.3,0.2,0.4v0.1c0.2,0.4,0.4,0.8,0.6,1.2c0.4,0.9,0.8,1.8,1.2,2.6l13.3,24.4c8.2-0.5,16.4-1.2,24.5-2 c6.3-0.2,11.5-1.9,15.5-5.4C83,291.8,84.8,287.7,84.3,282.8z"></path></g><path fill="#4e4943" d="M531.9,152.4c-5.2-26.7-18-47.9-38.4-63.6c-20.4-15.6-42.5-21.2-66.2-16.6c-23.7,4.6-42,18-55.1,40.1
					c-13.1,22.1-17,46.6-11.9,73.3c0.8,4.3,1.9,8.5,3.1,12.5c6.4,21,18.2,38,35.2,51.1c5.4,4.1,10.8,7.5,16.4,10.2
					c15.7,7.6,32.3,9.7,49.8,6.3c16.7-3.2,30.8-10.8,42.2-22.8c2.7-2.7,5.2-5.7,7.5-8.9c1.9-2.6,3.8-5.4,5.5-8.4
					C533.1,203.6,537.1,179.1,531.9,152.4z"></path><path d="M201.7,388.2c-3.3,0-6.5-0.1-9.7-0.2c-32.1-1-60.9-7.4-85.4-18.8C82,357.7,61,340.8,44.1,318.8
				C27.4,297,14.4,269.7,5.4,237.7c0-0.1,0-0.2-0.1-0.2c-2.1-9.4-4.2-19-6.2-28.5c-5.3-25.9-5.5-51.8-0.7-77
				c4.6-24.2,13.7-46.4,26.9-66.1c7.8-11.6,16.8-21.9,26.7-30.7c7-6.2,14.6-11.8,22.6-16.6C95,6.4,117.4-0.4,141.1-1.7
				c41-2.3,82.3-3.4,122.6-3.3c1.7,0,3.4,0,5.1,0c49.4,0.2,99.1,2.3,147.7,6.1c17.3,1.3,34.3,5.7,50.5,13.2
				c15.8,7.3,30.5,17.3,43.8,29.6c13.2,12.2,24.6,26.6,33.8,42.6c9.5,16.4,16.5,34.2,20.9,52.9c0,0,0,0,0,0
				c1.9,8.1,3.6,16.2,5.2,24.1c0,0.2,0.1,0.3,0.1,0.5c2.1,21.7,0.1,42-6,60.6c-6.2,18.6-16.6,35.8-31,51.1
				c-14.3,15.2-32.9,29-55.2,40.9c-22.2,11.9-48.8,22.3-79,31c-19.8,6-39.9,11.8-59.7,17.2c-2.5,0.7-5,1.4-7.5,2.1l-32.9,8.7
				c0,0-0.1,0-0.1,0C264,384,231.1,388.2,201.7,388.2z M15,235.1c8.6,30.7,21.1,56.9,37,77.6c15.9,20.6,35.6,36.6,58.8,47.4
				c23.3,10.9,50.7,16.9,81.5,17.9c31,1,66.3-3.1,104.8-12.1l32.8-8.6c2.4-0.6,4.9-1.3,7.4-2c19.8-5.4,39.8-11.2,59.5-17.2
				c0,0,0,0,0.1,0c29.5-8.5,55.5-18.7,77-30.3c21.4-11.5,39.1-24.6,52.7-39c13.4-14.3,23.1-30.2,28.8-47.4
				c5.7-17.1,7.6-36.1,5.6-56.2c-1.5-7.8-3.2-15.7-5.1-23.5c-4.2-17.8-10.8-34.6-19.8-50.2c-8.8-15.2-19.5-28.7-32-40.3
				c-12.5-11.6-26.4-21-41.2-27.8c-15.2-6.9-31-11.1-47.1-12.3C367.4,7.3,318,5.3,268.8,5c-1.7,0-3.4,0-5.1,0
				c-40.2-0.1-81.2,1-122,3.3c-22.1,1.2-42.9,7.5-61.8,18.8c-7.5,4.5-14.6,9.7-21.1,15.5c-9.3,8.3-17.8,18-25.1,28.9
				C21.2,90,12.7,111,8.3,133.8c-4.6,23.8-4.4,48.4,0.6,73.1C10.9,216.3,12.9,225.8,15,235.1z"></path></g></g><g transform="matrix(2.9166107177734375, 0, 0, 2.9166107177734375, 2037.2,948.05)"><g transform="matrix(1, 0, 0, 1, 0, 0)"><path d="M16.3,17.8c-0.4-2.2-1.6-4-3.5-5.2c-1.9-1.3-3.9-1.7-6.1-1.2c-2.2,0.4-4,1.6-5.2,3.4s-1.7,3.9-1.2,6.1s1.6,4,3.4,5.2
            c1.9,1.3,3.9,1.7,6.1,1.3s4-1.6,5.2-3.5C16.3,22.1,16.7,20,16.3,17.8 M73.7,6.7c-0.4-2.2-1.6-4-3.5-5.2
            c-1.9-1.3-3.9-1.7-6.2-1.2c-2.2,0.4-4,1.6-5.2,3.4s-1.7,3.9-1.2,6.1c0.4,2.2,1.6,4,3.4,5.2c1.9,1.3,3.9,1.7,6.1,1.3
            c2.2-0.4,4-1.6,5.2-3.5C73.7,10.9,74.2,8.9,73.7,6.7z"></path><path d="M8.1,32.6c-2.6,0-5.1-0.8-7.4-2.3c-2.9-2-4.8-4.9-5.5-8.4c-0.7-3.5,0-7,2-9.9c2-2.9,4.9-4.9,8.4-5.6c3.5-0.7,6.9,0,9.9,2
        c3,2,4.9,4.9,5.6,8.4c0.7,3.5,0,7-2.1,9.9c-2,3-4.9,4.9-8.4,5.6C9.8,32.5,9,32.6,8.1,32.6z M8.3,16.1c-0.2,0-0.5,0-0.7,0.1
        c-0.9,0.2-1.5,0.6-2.1,1.3C5,18.3,4.9,19,5.1,19.9c0.2,0.9,0.6,1.5,1.3,2.1c0,0,0,0,0.1,0c0.8,0.5,1.4,0.7,2.3,0.5
        c0.9-0.2,1.5-0.6,2-1.4c0,0,0-0.1,0.1-0.1c0.5-0.8,0.7-1.4,0.5-2.3c0,0,0,0,0,0c-0.2-0.9-0.6-1.5-1.4-2c0,0,0,0,0,0
        C9.4,16.3,8.9,16.1,8.3,16.1z M65.6,21.5c-2.6,0-5.1-0.8-7.4-2.3c-2.9-2-4.8-4.9-5.5-8.4c-0.7-3.5,0-7,2-9.9
        c2-2.9,4.9-4.9,8.4-5.6c3.5-0.7,6.9,0,9.9,2c3,2,4.9,4.9,5.6,8.4l0,0c0.7,3.5,0,7-2.1,9.9c-2,3-4.9,4.9-8.4,5.6
        C67.3,21.4,66.4,21.5,65.6,21.5z M65.8,5c-0.2,0-0.5,0-0.7,0.1c-0.9,0.2-1.5,0.6-2.1,1.3c-0.5,0.8-0.7,1.5-0.5,2.4
        c0.2,0.9,0.6,1.5,1.3,2.1c0,0,0,0,0,0c0.8,0.5,1.4,0.7,2.3,0.5c0.9-0.2,1.5-0.6,2-1.4c0,0,0-0.1,0.1-0.1c0.5-0.8,0.7-1.4,0.5-2.3
        l0,0c-0.2-0.9-0.6-1.5-1.4-2c0,0,0,0,0,0C66.9,5.2,66.4,5,65.8,5z"></path></g></g><g transform="matrix(2.9166107177734375, 0, 0, 2.9166107177734375, 746.1,619.15)"><g transform="matrix(1, 0, 0, 1, 0, 0)"><g><path fill="#ADC0F4" d="M26.7-12.4C21-12.6,16-11.3,11.7-8.5C-2.2,1.1-12.2,14.9-18.2,33c-1.5,4.5-1.5,9.3-0.1,14.4
                                        c1.4,5,4.2,9.6,8.2,13.8C6,78.4,24.5,93.1,45.2,105c2.8,1.6,5.6,2.7,8.3,3.4l51.6-66.1c-1.8-3-4-5.9-6.8-8.6
                                        c-16.3-15.3-34.6-29-55-41.1C38-10.5,32.5-12.2,26.7-12.4 M66,35.9c4,3.1,6.2,7.2,6.8,12.2c0.6,5-0.7,9.5-3.8,13.4l-6.3,7.8
                                        c-3.1,4-7.1,6.2-12.1,6.8c-5,0.6-9.5-0.7-13.5-3.8L15.5,55.2C11.6,52.1,9.4,48,8.8,43c-0.6-5,0.6-9.4,3.8-13.4l6.2-7.8
                                        c3.1-3.9,7.2-6.2,12.1-6.8c5-0.6,9.5,0.7,13.4,3.8L66,35.9z"></path><path fill="#D3CCB9" d="M72.8,48.1c-0.6-5-2.8-9.1-6.8-12.2L44.3,18.8c-3.9-3.1-8.4-4.4-13.4-3.8c-5,0.6-9,2.9-12.1,6.8l-6.2,7.8
                                        C9.4,33.6,8.2,38,8.8,43c0.6,5,2.8,9.1,6.7,12.2l21.6,17.1c4,3.1,8.5,4.4,13.5,3.8c5-0.6,9-2.9,12.1-6.8l6.3-7.8
                                        C72.1,57.5,73.4,53.1,72.8,48.1z"></path></g><g><path d="M53.6,113.5c-0.4,0-0.8,0-1.2-0.1c-3.2-0.8-6.5-2.1-9.7-3.9C21.6,97.2,2.7,82.1-13.7,64.6c-4.6-4.8-7.7-10.1-9.4-15.9
                                    c0,0,0,0,0-0.1c-1.7-6.1-1.6-11.9,0.2-17.3c6.4-19,17.1-33.8,31.9-44c0,0,0.1,0,0.1-0.1c5.1-3.4,11.1-5,17.8-4.8c0,0,0.1,0,0.1,0
                                    c6.6,0.3,12.9,2.2,18.9,5.7c0,0,0,0,0,0c20.6,12.3,39.4,26.4,55.9,41.8c0,0,0,0,0,0c3.1,3,5.7,6.3,7.7,9.7
                                    c1.4,2.4,0.6,5.4-1.8,6.8c-2.4,1.4-5.4,0.6-6.8-1.8c-1.5-2.6-3.5-5.1-6-7.5C79,22.4,60.8,8.8,40.8-3.1c-4.6-2.7-9.4-4.1-14.3-4.4
                                    c-4.6-0.1-8.5,0.9-12,3.1c-12.9,8.9-22.3,22-28,38.9c-1.2,3.5-1.2,7.3,0,11.5c1.2,4.2,3.6,8.1,7,11.7c0,0,0,0,0,0
                                    C9.3,74.6,27.5,89,47.7,100.7c2.4,1.3,4.7,2.3,7,2.9c2.7,0.6,4.3,3.3,3.7,6C57.9,111.9,55.8,113.5,53.6,113.5z M48.4,81.3
                                    c-5.2,0-10-1.7-14.3-5.1L12.5,59.1c-5-3.9-7.9-9.2-8.6-15.5c-0.8-6.3,0.9-12,4.8-17.1c0,0,0,0,0,0l6.2-7.8c4-5,9.2-7.9,15.5-8.7
                                    c0,0,0,0,0,0c6.4-0.7,12.1,0.9,17.1,4.8L69.1,32c5,4,7.9,9.2,8.7,15.6c0.8,6.3-0.9,12.1-4.8,17l-6.2,7.8c-3.9,5-9.1,8-15.5,8.7
                                    C50.3,81.2,49.3,81.3,48.4,81.3z M16.5,32.7c-2.3,2.9-3.2,6.1-2.7,9.7c0,0,0,0,0,0c0.4,3.7,2,6.6,4.9,8.8l21.7,17.1
                                    c2.9,2.3,6.1,3.2,9.8,2.8c3.6-0.4,6.5-2.1,8.8-5c0,0,0,0,0,0l6.3-7.9c2.3-2.8,3.1-6,2.7-9.6c-0.4-3.7-2-6.6-4.9-8.9L41.3,22.7
                                    c-2.9-2.3-6.1-3.2-9.8-2.8c-3.6,0.4-6.5,2.1-8.8,4.9L16.5,32.7z"></path></g></g></g><svg x="0px" y="0px" viewBox="0 0 3000 3000"><g id="emotion_x5F_relaxed_x5F_eyes" transform="matrix(2.862030029296875, -0.5612640380859375, 0.5612640380859375, 2.862030029296875, 1072.45,942.75)"><g transform="matrix(1, 0, 0, 1, 0, 0)"><g transform="matrix(1, 0, 0, 1, 0, 0)"><g><path d="M24.8,59.7c-5.4-1.1-10.2-4.3-14.1-9.8c-2.4-3.3-4.1-7-5.2-11c-0.7-2.7,0.8-5.4,3.5-6.1c2.7-0.7,5.4,0.8,6.1,3.5
					c0.8,2.8,2,5.5,3.7,7.8c1.9,2.6,4.9,6,9.9,6c4.9,0,7.9-3.4,9.7-6c0,0,0,0,0-0.1c1.7-2.3,2.9-4.9,3.7-7.8
					c0.7-2.7,3.5-4.2,6.2-3.5c2.7,0.7,4.2,3.5,3.5,6.2c-1.1,4-2.9,7.7-5.2,11c-4.8,6.8-10.8,10.2-17.9,10.2
					C27.4,60.1,26,60,24.8,59.7z"></path></g></g></g><g transform="matrix(1, 0, 0, 1, 141.75, 0)"><g transform="matrix(1, 0, 0, 1, 0, 0)"><g><path d="M24.8,59.7c-5.4-1.1-10.2-4.3-14.1-9.8c-2.4-3.3-4.1-7-5.2-11c-0.7-2.7,0.8-5.4,3.5-6.1c2.7-0.7,5.4,0.8,6.1,3.5
					c0.8,2.8,2,5.5,3.7,7.8c1.9,2.6,4.9,6,9.9,6c4.9,0,7.9-3.4,9.7-6c0,0,0,0,0-0.1c1.7-2.3,2.9-4.9,3.7-7.8
					c0.7-2.7,3.5-4.2,6.2-3.5c2.7,0.7,4.2,3.5,3.5,6.2c-1.1,4-2.9,7.7-5.2,11c-4.8,6.8-10.8,10.2-17.9,10.2
					C27.4,60.1,26,60,24.8,59.7z"></path></g></g></g></g><g id="emotion_x5F_relaxed_x5F_mouth_x5F_capy" transform="matrix(2.8626556396484375, -0.55804443359375, 0.55804443359375, 2.8626556396484375, 2017.75,1110.25)"><g transform="matrix(1, 0, 0, 1, 0, 0)"><g><g id="Symbol_16_2_Layer0_0_FILL"><path d="M99.2,27.6c4.6-7.8,6.8-16.6,6.8-26.3c0-0.4,0-0.8,0-1.2L0,0c0,0.4,0,0.8,0,1.2C0,11,2.3,19.8,6.8,27.6
					C35.3,7.7,66.1,7.7,99.2,27.6z"></path><path fill="#cf80a6" d="M90.6,38.7c3.5-3.5,6.4-7.2,8.7-11.2c-33.2-19.9-64-19.9-92.4,0c2.3,4,5.2,7.7,8.7,11.1
					c10.4,10.4,22.9,15.5,37.5,15.5C67.7,54.3,80.2,49.1,90.6,38.7z"></path></g></g><g><path d="M41.3,58.2C30.2,56,20.4,50.7,12,42.3C8.2,38.5,5,34.5,2.5,30.2c0,0,0-0.1-0.1-0.1C-2.5,21.5-5,11.8-5,1.2L-5,0
				c0-1.3,0.5-2.6,1.5-3.5C-2.6-4.5-1.3-5,0-5l106.1,0c2.8,0,5,2.2,5,5l0,1.3c0,10.6-2.5,20.3-7.5,28.9c0,0,0,0,0,0
				c-2.5,4.3-5.7,8.4-9.5,12.2c-11.3,11.3-25.1,17-41,17C49,59.3,45.1,58.9,41.3,58.2z M13.7,29c1.6,2.1,3.3,4.2,5.3,6.2
				c9.5,9.5,20.6,14.1,34,14.1c13.4,0,24.5-4.6,34-14.1c1.9-1.9,3.6-3.9,5.1-5.9C78,21.6,64.3,17.6,51.3,17.6
				C38.4,17.6,25.8,21.5,13.7,29z M5.1,5c0.4,5.5,1.6,10.6,3.6,15.3c27.4-17,57.1-16.9,88.4,0.3c2.1-4.8,3.4-10.1,3.8-15.6L5.1,5z"></path></g></g></g></svg><svg viewBox="0 0 3000 3000"><path fill-rule="evenodd" clip-rule="evenodd" d="M2727.8,2633.6L2727.8,2633.6c9.4,11.9,15,27,15,43.3c0,16.4-5.8,31.9-15.4,43.8l-0.8,1l-0.2-1.3  c-0.2-1.1-0.4-2.2-0.7-3.4c-4.8-21.4-20.5-39.8-46.4-54.6c-17.5-10-27.5-22.1-30.1-35.8c-1.7-8.9-0.4-17.8,2-25.4  c2.4-7.6,6.1-14,9.1-17.8l10.1-12.4c1.8-2.2,5.1-2.2,6.8,0L2727.8,2633.6L2727.8,2633.6z M2743.7,2621.2L2743.7,2621.2l-67.4-83.3  c-1.3-1.6-3.7-1.6-5,0l-67.4,83.3v0l-0.2,0.3c-12.4,15.6-19.8,35.3-19.8,56.8c0,50.1,40.3,90.7,90,90.7s90-40.6,90-90.7  c0-21.5-7.4-41.3-19.8-56.8L2743.7,2621.2L2743.7,2621.2z M2619.9,2633.4l6-7.5l0.2,1.4c0.2,1.1,0.3,2.2,0.5,3.3  c3.9,20.7,17.9,37.9,41.2,51.3c20.3,11.6,32.1,25,35.5,39.7c1.4,6.1,1.7,12.2,1.1,17.4l0,0.3l-0.3,0.1c-9.1,4.5-19.4,7.1-30.3,7.1  c-38.1,0-69-31.2-69-69.6C2604.7,2660.4,2610.4,2645.3,2619.9,2633.4L2619.9,2633.4z"></path></svg></svg>